<svg width="15" height="24" viewBox="0 0 15 24" fill="none" xmlns="http://www.w3.org/2000/svg">
<mask id="mask0_250_6892" style="mask-type:alpha" maskUnits="userSpaceOnUse" x="0" y="0" width="15" height="24">
<rect x="0.75" width="14" height="24" fill="#C4C4C4"/>
</mask>
<g mask="url(#mask0_250_6892)">
<path d="M3.42188 2.66406V21.9974H7.85669C10.8591 21.9974 12.264 20.3679 12.264 17.4679V15.8383C12.264 13.7117 11.5478 12.2203 9.67468 11.6955C11.355 11.1707 11.9334 9.90025 11.9334 7.85644V6.94501C11.9334 4.10025 10.749 2.66406 7.74651 2.66406H3.42188ZM5.57042 10.8669V4.62502H7.69141C9.23396 4.62502 9.81241 5.45359 9.81241 7.16597V8.29835C9.81241 10.3145 8.93096 10.8669 7.22314 10.8669H5.57042ZM5.57042 20.0364V12.8279H7.44351C9.28905 12.8279 10.143 13.546 10.143 15.7003V17.4126C10.143 19.2079 9.42678 20.0364 7.85669 20.0364H5.57042Z" fill="white"/>
<path d="M25.3921 18.1031L26.1359 21.9974H28.2844L24.5933 2.66406H21.4807L17.7896 21.9974H19.7729L20.5166 18.1031H25.3921ZM22.9131 5.09454L25.0891 16.2526H20.7921L22.9131 5.09454Z" fill="white"/>
<path d="M42.5495 20.0364H35.9661L42.6046 4.5974V2.66406H34.093V4.62502H40.401L33.79 20.0641V21.9974H42.5495V20.0364Z" fill="white"/>
<path d="M55.7136 18.1031L56.4573 21.9974H58.6059L54.9148 2.66406H51.8022L48.1111 21.9974H50.0944L50.8381 18.1031H55.7136ZM53.2345 5.09454L55.4106 16.2526H51.1135L53.2345 5.09454Z" fill="white"/>
<path d="M64.4145 2.66406V21.9974H66.5631V13.7393H68.0781C69.8685 13.7393 70.8877 14.4298 70.8877 16.6117V19.6498C70.8877 20.9479 70.9979 21.445 71.2458 21.9974H73.4219C73.0638 21.3345 73.0362 20.5336 73.0362 19.6774V16.6669C73.0362 14.5955 72.3751 13.1593 70.6122 12.6345C72.265 12.1098 73.0087 10.7841 73.0087 8.6574V7.08311C73.0087 4.21073 71.7416 2.66406 68.7116 2.66406H64.4145ZM66.5631 11.7783V4.62502H68.6565C70.2542 4.62502 70.8877 5.53644 70.8877 7.27644V9.12692C70.8877 11.226 69.8685 11.7783 68.1607 11.7783H66.5631Z" fill="white"/>
</g>
</svg>
