<svg width="105" height="29" viewBox="0 0 105 29" fill="none" xmlns="http://www.w3.org/2000/svg">
<path d="M0 0V29H6.65222C11.1559 29 13.2631 26.5557 13.2631 22.2057V19.7614C13.2631 16.5714 12.1888 14.3343 9.37921 13.5471C11.8996 12.76 12.7673 10.8543 12.7673 7.78857V6.42143C12.7673 2.15429 10.9906 0 6.48695 0H0ZM3.22281 12.3043V2.94143H6.40431C8.71812 2.94143 9.5858 4.18429 9.5858 6.75286V8.45143C9.5858 11.4757 8.26362 12.3043 5.7019 12.3043H3.22281ZM3.22281 26.0586V15.2457H6.03245C8.80076 15.2457 10.0816 16.3229 10.0816 19.5543V22.1229C10.0816 24.8157 9.00735 26.0586 6.65222 26.0586H3.22281Z" fill="black"/>
<path d="M32.9554 23.1586L34.071 29H37.2938L31.7572 0H27.0882L21.5516 29H24.5265L25.6421 23.1586H32.9554ZM29.2368 3.64571L32.5009 20.3829H26.0553L29.2368 3.64571Z" fill="black"/>
<path d="M58.6914 26.0586H48.8164L58.7741 2.9V0H46.0068V2.94143H55.4686L45.5523 26.1V29H58.6914V26.0586Z" fill="black"/>
<path d="M78.4376 23.1586L79.5532 29H82.776L77.2394 0H72.5704L67.0338 29H70.0087L71.1243 23.1586H78.4376ZM74.719 3.64571L77.9831 20.3829H71.5375L74.719 3.64571Z" fill="black"/>
<path d="M91.489 0V29H94.7118V16.6129H96.9843C99.67 16.6129 101.199 17.6486 101.199 20.9214V25.4786C101.199 27.4257 101.364 28.1714 101.736 29H105C104.463 28.0057 104.422 26.8043 104.422 25.52V21.0043C104.422 17.8971 103.43 15.7429 100.786 14.9557C103.265 14.1686 104.38 12.18 104.38 8.99V6.62857C104.38 2.32 102.48 0 97.9346 0H91.489ZM94.7118 13.6714V2.94143H97.852C100.248 2.94143 101.199 4.30857 101.199 6.91857V9.69429C101.199 12.8429 99.67 13.6714 97.1082 13.6714H94.7118Z" fill="black"/>
</svg>
