<svg width="113" height="31" viewBox="0 0 113 31" fill="none" xmlns="http://www.w3.org/2000/svg">
<path d="M0 0V31H7.15905C12.0059 31 14.2736 28.3871 14.2736 23.7371V21.1243C14.2736 17.7143 13.1175 15.3229 10.0938 14.4814C12.8063 13.64 13.74 11.6029 13.74 8.32571V6.86429C13.74 2.30286 11.828 0 6.98119 0H0ZM3.46836 13.1529V3.14429H6.89226C9.38236 3.14429 10.3162 4.47286 10.3162 7.21857V9.03429C10.3162 12.2671 8.89323 13.1529 6.13633 13.1529H3.46836ZM3.46836 27.8557V16.2971H6.49206C9.47129 16.2971 10.8497 17.4486 10.8497 20.9029V23.6486C10.8497 26.5271 9.69362 27.8557 7.15905 27.8557H3.46836Z" fill="white"/>
<path d="M35.4663 24.7557L36.6669 31H40.1352L34.1768 0H29.1521L23.1936 31H26.3952L27.5958 24.7557H35.4663ZM31.4643 3.89714L34.9772 21.7886H28.0404L31.4643 3.89714Z" fill="white"/>
<path d="M63.1632 27.8557H52.5357L63.2521 3.1V0H49.512V3.14429H59.6948L49.0229 27.9V31H63.1632V27.8557Z" fill="white"/>
<path d="M84.4138 24.7557L85.6144 31H89.0828L83.1243 0H78.0996L72.1412 31H75.3427L76.5433 24.7557H84.4138ZM80.4118 3.89714L83.9247 21.7886H76.988L80.4118 3.89714Z" fill="white"/>
<path d="M98.4596 0V31H101.928V17.7586H104.374C107.264 17.7586 108.909 18.8657 108.909 22.3643V27.2357C108.909 29.3171 109.087 30.1143 109.487 31H113C112.422 29.9371 112.377 28.6529 112.377 27.28V22.4529C112.377 19.1314 111.31 16.8286 108.464 15.9871C111.132 15.1457 112.333 13.02 112.333 9.61V7.08572C112.333 2.48 110.288 0 105.396 0H98.4596ZM101.928 14.6143V3.14429H105.307C107.886 3.14429 108.909 4.60572 108.909 7.39571V10.3629C108.909 13.7286 107.264 14.6143 104.507 14.6143H101.928Z" fill="white"/>
</svg>
