<svg width="16" height="16" viewBox="0 0 16 16" fill="none" xmlns="http://www.w3.org/2000/svg">
<path d="M7.9175 9.24218L11.5745 5.58518C11.6411 5.51209 11.7216 5.4531 11.8114 5.4117C11.9011 5.37029 11.9983 5.34732 12.0971 5.34413C12.1959 5.34095 12.2943 5.35762 12.3866 5.39316C12.4788 5.42869 12.563 5.48238 12.6341 5.55103C12.7052 5.61968 12.7619 5.7019 12.8006 5.79282C12.8394 5.88375 12.8596 5.98153 12.8599 6.08038C12.8602 6.17924 12.8407 6.27715 12.8025 6.36832C12.7643 6.45949 12.7082 6.54207 12.6375 6.61118L12.6195 6.62918L8.4405 10.8092C8.30192 10.9477 8.11397 11.0256 7.918 11.0256C7.72203 11.0256 7.53409 10.9477 7.3955 10.8092L3.2165 6.63018C3.14671 6.56274 3.09087 6.48222 3.05219 6.39321C3.01352 6.3042 2.99275 6.20844 2.99108 6.11141C2.9894 6.01437 3.00686 5.91795 3.04245 5.82766C3.07804 5.73737 3.13107 5.65498 3.1985 5.58518C3.26594 5.51538 3.34646 5.45955 3.43547 5.42087C3.52448 5.38219 3.62024 5.36142 3.71728 5.35975C3.81431 5.35808 3.91073 5.37554 4.00102 5.41113C4.09131 5.44672 4.17371 5.49974 4.2435 5.56718L4.2615 5.58518L7.9175 9.24218Z" fill="#393939" stroke="#393939" stroke-width="0.5"/>
</svg>
