<svg width="321" height="321" viewBox="0 0 321 321" fill="none" xmlns="http://www.w3.org/2000/svg">
<rect width="321" height="321" fill="white"/>
<path fill-rule="evenodd" clip-rule="evenodd" d="M234.403 198.107C229.735 199.932 224.334 202.672 223.833 207.659C230.175 202.78 238.008 199.869 245.997 199.422C240.478 206.375 233.509 212.172 225.667 216.333C218.625 220.07 209.71 224.055 209.105 232.005C216.669 222.999 228.297 217.546 240.057 217.492C232.533 228.512 220.469 236.328 207.336 238.691C207.787 242.077 222.347 249.331 226.589 250.726C229.609 263.702 230.917 280.529 233.938 293.505C234.681 296.698 235.335 300.367 233.38 302.999C231.44 305.609 227.777 306.058 224.533 306.289C211.747 307.198 194.253 308.107 181.467 309.016C179.936 302.08 178.405 295.145 176.875 288.209C155.308 290.212 62.8479 311.4 45.8803 300.284C-19.6205 257.376 63.9044 242.759 65.6994 190.518C66.1109 178.539 30.0963 157.601 30.6681 145.361C31.0415 137.368 32.2787 129.561 36.2331 122.698C40.1874 115.836 46.4534 110.549 53.2639 106.505C43.8875 104.095 36.7854 94.7486 36.9755 85.0694C37.1655 75.3901 44.6289 66.3295 54.0926 64.2893C49.6307 58.9722 42.6048 56.5351 37.4729 51.8613C31.4946 46.4168 28.4904 37.6341 30.6681 29.8468C32.8458 22.0596 40.5131 15.9327 48.5917 16.2779C55.2276 16.5615 61.0673 20.7586 65.6994 25.5188C72.8831 32.9014 78.2258 42.062 81.1143 51.9496C83.0396 58.5401 90.0956 61.8929 96.0545 65.3035C102.013 68.7141 108.202 74.6551 106.523 81.3125C104.303 72.2025 137.293 83.0536 167.211 85.7099C171.184 86.0626 175.459 86.5761 178.395 89.2745C182.615 93.1523 188.951 94.5666 194.419 92.8516C196.159 97.1646 197.439 102.009 195.96 106.418C194.481 110.828 189.243 114.193 185.055 112.17C186.148 117.794 187.241 123.418 188.334 129.041C199.041 129.17 209.747 129.389 220.45 129.697C226.123 129.861 232.052 130.119 236.982 132.929C241.913 135.74 248.512 131.758 253.383 121.529C250.231 138.22 253.966 144.89 260.408 146.703C260.422 146.577 260.922 146.637 260.937 146.511C262.855 130.016 274.048 115.37 289.625 109.576C288.248 112.751 278.392 119.021 271.548 127.027C264.862 134.848 261.662 145.318 261.331 147.198C271.946 144.415 275.485 152.323 293.495 145.361C285.265 155.255 269.407 157.691 258.587 150.723C253.482 156.416 253.768 162.72 250.152 169.457C256.294 161.823 264.451 168.591 257.98 173.539C261.414 173.869 265.128 174.321 267.619 176.708C270.11 179.095 270.172 184.119 266.959 185.376C256.107 189.619 245.255 193.863 234.403 198.107Z" fill="#393939" fill-opacity="0.1"/>
<path fill-rule="evenodd" clip-rule="evenodd" d="M216.788 160.487C217.181 159.74 217.607 158.957 218.33 158.522C219.053 158.086 220.162 158.176 220.552 158.925C220.966 159.722 220.349 160.682 219.626 161.214C218.902 161.746 218.012 162.121 217.542 162.886C220.083 164.56 222.624 166.235 225.165 167.909C227.156 169.221 229.407 171.094 229 173.442C228.761 174.819 227.594 175.889 226.295 176.403C224.995 176.917 223.566 176.97 222.169 177.011C212.781 177.281 203.383 177.233 193.998 176.868C193.347 176.842 192.621 176.782 192.187 176.296C191.851 175.919 191.781 175.381 191.727 174.88C191.187 169.884 190.647 164.889 190.107 159.894C190.087 159.709 190.068 159.516 190.134 159.343C190.412 158.614 191.503 159.063 192.113 159.55C196.433 162.998 203.34 162.593 207.227 158.663C208.167 157.714 209.766 157.837 210.973 158.409C212.179 158.982 213.189 159.913 214.4 160.477C214.271 159.777 214.888 159.039 215.599 159.042C216.311 159.044 216.923 159.788 216.788 160.487Z" fill="white"/>
<path fill-rule="evenodd" clip-rule="evenodd" d="M65.6025 105.354C65.6025 105.354 64.5538 92.7925 67.1936 88.7544C69.8333 84.7163 79.8884 83.5005 79.8884 83.5005C79.8884 83.5005 107.448 83.1404 122.338 83.7096C137.228 84.2788 167.008 86.8307 167.008 86.8307C167.008 86.8307 170.878 87.6748 172.617 88.7544C174.357 89.834 176.783 92.8975 176.783 92.8975C176.783 92.8975 182.063 93.6672 184.689 93.7719C187.316 93.8766 189.722 93.4132 189.722 93.4132C189.722 93.4132 193.069 103.175 190.703 107.828C188.337 112.481 180.391 111.759 180.391 111.759L183.204 129.173C183.204 129.173 179.86 130.753 178.033 132.735C176.205 134.716 175.471 137.557 175.471 137.557L180.903 190.518C180.903 190.518 182.501 193.271 185.933 194.316C189.365 195.362 197.098 195.45 197.098 195.45C197.098 195.45 196.822 200.791 197.098 203.089C197.373 205.387 197.619 206.646 197.619 206.646L203.441 248.324C203.441 248.324 197.782 249.353 192.183 250.712C186.584 252.07 175.471 255.109 175.471 255.109C175.471 255.109 171.554 256.896 171.047 259.779C170.539 262.663 172.617 271.329 172.617 271.329L110.233 276.084C110.233 276.084 104.162 276.198 102.074 274.882C99.986 273.567 99.4137 269.267 99.4137 269.267L90.9756 193.374C90.9756 193.374 77.4917 193.704 73.5535 191.455C69.6154 189.207 69.1391 180.906 69.1391 180.906C69.1391 180.906 69.7934 176.201 69.1391 172.936C68.9208 171.846 66.0689 160.036 65.1108 148.799C64.5687 142.44 72.051 137.557 72.051 137.557L65.6025 105.354Z" fill="white"/>
<path fill-rule="evenodd" clip-rule="evenodd" d="M109.622 87.8829C109.137 88.5667 109.543 89.587 110.244 90.047C110.945 90.507 111.829 90.5588 112.666 90.5965C121.767 91.0061 130.868 91.4156 139.969 91.8252C140.855 91.8651 141.838 91.8739 142.509 91.2937C143.181 90.7136 143.093 89.3301 142.216 89.1907C132.096 87.5817 121.827 86.9135 111.583 87.1975C110.864 87.2174 110.039 87.2962 109.622 87.8829" fill="#EBEBEB"/>
<path fill-rule="evenodd" clip-rule="evenodd" d="M150.113 153.113L147.748 142.014C147.748 142.014 147.638 144.303 146.386 145.234C145.134 146.165 142.658 145.799 142.658 145.799C142.658 145.799 142.266 138.049 144.009 135.689C145.751 133.329 147.468 135.557 150.778 134.803C154.085 134.048 153.4 131.564 157.243 132.67C161.086 133.777 163.925 142.001 163.925 142.001C163.925 142.001 160.912 143.011 159.63 142.752C158.348 142.493 158.661 140.938 158.661 140.938C158.661 140.938 157.752 140.551 157.984 143.278C158.096 144.602 159.099 146.595 159.63 149.2C159.828 150.171 159.63 152.352 159.63 152.352C159.63 152.352 156.211 152.7 153.256 153.333C150.301 153.965 150.113 153.113 150.113 153.113Z" fill="#EBEBEB"/>
<path fill-rule="evenodd" clip-rule="evenodd" d="M66.149 125.506C65.0108 124.893 64.0852 123.959 63.178 123.038C60.8377 120.662 58.4683 118.248 56.8445 115.336C56.6899 115.058 56.5379 114.74 56.6271 114.435C56.7162 114.131 57.1815 113.958 57.3554 114.223C60.1778 118.532 63.7421 122.353 67.844 125.469C67.4752 125.965 66.6932 125.799 66.149 125.506Z" fill="#00160A"/>
<path fill-rule="evenodd" clip-rule="evenodd" d="M69.5585 70.9714C70.2309 70.2787 70.5895 69.3466 70.8991 68.4322C71.8647 65.5808 72.5226 62.6254 72.8578 59.6337C72.9182 59.0948 73.0171 58.4743 73.4847 58.1997C74.0105 60.7649 73.3593 63.4085 72.7117 65.9457C72.1424 68.1763 71.512 70.5184 69.8973 72.1593C69.734 72.3253 69.5253 72.4944 69.2956 72.456C68.9859 72.4043 68.8618 71.9926 68.9723 71.6987C69.0829 71.4049 69.3398 71.1967 69.5585 70.9714L69.5585 70.9714Z" fill="#00160A"/>
<path fill-rule="evenodd" clip-rule="evenodd" d="M231.857 93.3457C232.177 93.2602 232.503 93.5126 232.642 93.813C232.782 94.1133 232.792 94.4549 232.854 94.7802C233.097 96.0517 234.243 97.095 235.531 97.2174C235.692 97.5909 235.337 97.9647 235.056 98.2585C234.416 98.9275 234.013 99.8174 233.931 100.739C233.878 101.337 233.752 102.169 233.151 102.162C232.669 102.155 232.457 101.572 232.283 101.122C231.859 100.022 230.901 99.1426 229.769 98.813C229.532 98.7438 229.432 98.4402 229.497 98.2015C229.563 97.9629 229.744 97.7763 229.916 97.5991C230.66 96.8362 231.414 95.9331 231.406 94.8678C231.402 94.2917 231.3 93.4945 231.857 93.3457Z" fill="#393939" fill-opacity="0.5"/>
<path fill-rule="evenodd" clip-rule="evenodd" d="M254.394 193.414C253.396 194.44 253.042 196.045 253.517 197.396C252.991 197.631 252.598 196.906 252.337 196.392C251.947 195.62 251.208 195.033 250.368 194.826C251.585 194.059 252.342 192.615 252.281 191.177C252.77 190.858 253.318 191.523 253.458 192.09C253.599 192.656 253.81 193.393 254.394 193.414Z" fill="#E7EAEE"/>
<path fill-rule="evenodd" clip-rule="evenodd" d="M245.873 195.337C246.452 196.256 247.275 197.019 248.235 197.527C248.58 197.71 248.268 198.217 247.983 198.484C247.265 199.155 246.811 200.1 246.735 201.079C246.107 200.45 245.48 199.821 244.852 199.192C244.602 198.941 244.337 198.552 244.553 198.27C245.212 197.412 245.667 196.399 245.873 195.337Z" fill="#E7EAEE"/>
<path fill-rule="evenodd" clip-rule="evenodd" d="M203.952 84.7192C204.523 81.082 205.903 77.5075 208.329 74.7375C210.754 71.9675 214.295 70.0766 217.977 70.0796C221.658 70.0826 225.377 72.1677 226.907 75.5165C227.698 77.2492 227.892 79.1999 227.839 81.1041C227.736 84.7257 226.763 88.3198 225.025 91.4986C223.458 94.3651 221.204 96.9436 218.279 98.3977C215.353 99.8519 211.707 100.047 208.863 98.4396C206.611 97.1667 205.035 94.882 204.284 92.4065C203.534 89.931 203.55 87.2747 203.952 84.7192M226.454 81.9668C226.521 79.7117 226.149 77.383 224.963 75.4636C224.242 74.2968 223.232 73.3099 222.049 72.616C218.233 70.3783 213.04 71.5804 209.871 74.6662C206.702 77.752 205.328 82.3127 205.186 86.7338C205.111 89.092 205.364 91.5102 206.367 93.646C207.37 95.7819 209.204 97.6087 211.49 98.1955C214.48 98.9634 217.635 97.5177 219.98 95.5093C223.892 92.1581 226.303 87.1158 226.454 81.9668Z" fill="#393939" fill-opacity="0.5"/>
<path fill-rule="evenodd" clip-rule="evenodd" d="M241.628 82.1937C241.019 82.9896 240.382 84.0351 240.85 84.9216C241.017 85.2387 240.584 85.6079 240.24 85.5078C239.896 85.4077 239.7 85.0441 239.608 84.6975C239.517 84.3509 239.487 83.979 239.303 83.6713C239.119 83.3636 238.702 83.1497 238.397 83.3394C237.964 83.288 237.92 82.6356 238.171 82.2796C238.423 81.9235 238.837 81.6787 238.991 81.2711C239.114 80.9483 239.048 80.5861 239.106 80.2458C239.164 79.9055 239.454 79.5421 239.788 79.629C239.776 80.2271 239.846 80.8478 240.149 81.3634C240.453 81.879 241.034 82.2647 241.628 82.1937Z" fill="#393939" fill-opacity="0.5"/>
<path fill-rule="evenodd" clip-rule="evenodd" d="M187.166 81.0152C187.642 80.4617 188.24 79.9881 188.941 79.7865C189.643 79.585 190.457 79.6912 191.005 80.1736C191.601 80.6985 191.788 81.5755 191.661 82.3595C191.534 83.1436 191.139 83.856 190.723 84.5326C190.183 85.4105 189.596 86.2599 188.967 87.076C188.77 87.3308 188.555 87.5937 188.254 87.7073C187.856 87.8573 187.412 87.7113 187.02 87.5473C185.642 86.9712 184.361 86.1629 183.247 85.1668C182.228 84.2547 181.287 82.918 181.7 81.6138C181.964 80.7828 182.767 80.1818 183.629 80.0535C184.492 79.9252 185.385 80.229 186.07 80.7673C186.398 81.0248 186.894 81.3314 187.166 81.0152M182.811 81.4979C182.161 82.3935 182.867 83.648 183.687 84.3916C184.711 85.3195 185.926 86.0049 187.13 86.6824C187.285 86.7694 187.457 86.8595 187.631 86.8221C187.786 86.7887 187.9 86.662 188.002 86.5411C188.818 85.5748 189.548 84.5368 190.183 83.443C190.671 82.6016 191.029 81.3653 190.243 80.7926C189.621 80.3394 188.714 80.7045 188.187 81.265C187.659 81.8254 187.328 82.5572 186.751 83.0672C186.301 82.358 185.823 81.6211 185.093 81.2048C184.364 80.7886 183.305 80.8184 182.811 81.4979H182.811Z" fill="#393939" fill-opacity="0.5"/>
<path fill-rule="evenodd" clip-rule="evenodd" d="M177.843 56.54C179.335 55.3765 180.995 54.4273 182.754 53.7305C183.833 53.3034 185.064 52.9746 186.13 53.432C187.838 54.165 188.171 56.618 187.272 58.2451C186.373 59.8722 184.669 60.8586 183.046 61.7651C179.863 63.5427 176.681 65.3203 173.498 67.0979C174.125 65.847 173.418 64.3787 172.839 63.1051C171.535 60.2366 170.852 57.0873 170.852 53.9363C170.851 52.9409 170.926 51.9155 171.363 51.021C171.799 50.1265 172.671 49.3846 173.666 49.3612C175.258 49.3237 176.317 50.9821 176.854 52.4816C177.325 53.7948 177.657 55.1576 177.843 56.54ZM184.588 54.2595C182.014 54.7824 179.616 56.1366 177.839 58.0704C177.664 58.2609 177.324 58.177 177.164 57.9736C177.004 57.7702 176.973 57.4975 176.943 57.2406C176.742 55.5394 176.297 53.8672 175.626 52.2912C175.252 51.4126 174.625 50.4424 173.67 50.427C172.963 50.4155 172.347 50.9822 172.086 51.6401C171.825 52.298 171.847 53.0303 171.897 53.7363C172.176 57.6738 173.212 61.5562 174.932 65.1094C177.747 63.5317 180.562 61.954 183.378 60.3762C184.256 59.884 185.15 59.3795 185.833 58.6396C186.516 57.8997 186.965 56.8716 186.767 55.8844C186.569 54.8972 185.575 54.059 184.588 54.2595Z" fill="#393939" fill-opacity="0.5"/>
<path fill-rule="evenodd" clip-rule="evenodd" d="M158.143 251.564C166.361 250.627 174.631 250.156 182.901 250.153C184.418 250.152 185.738 248.973 186.355 247.587C186.971 246.201 187.02 244.637 187.021 243.12C187.024 237.483 186.494 231.861 185.965 226.249C185.75 223.973 185.535 221.698 185.32 219.422C185.19 218.041 185.052 216.629 184.47 215.37C183.461 213.184 181.227 211.763 178.899 211.151C176.571 210.539 174.124 210.623 171.718 210.711C163.732 211.004 155.745 211.296 147.759 211.588C152.363 209.9 157.377 209.821 162.28 209.761C166.039 209.715 169.798 209.669 173.557 209.623C177.4 209.576 181.79 209.769 184.241 212.728C185.825 214.64 186.174 217.258 186.439 219.727C187.272 227.498 187.883 235.294 188.269 243.101C188.397 245.688 188.294 248.728 186.187 250.235C185.009 251.078 183.481 251.205 182.036 251.303C173.234 251.899 164.433 252.495 155.631 253.091C153.565 253.231 151.387 253.351 149.528 252.437C148.882 252.12 148.219 251.403 148.566 250.772C151.427 252.33 154.906 251.933 158.143 251.564Z" fill="#00160A"/>
<path fill-rule="evenodd" clip-rule="evenodd" d="M123.335 126.895C123.5 127.142 123.537 127.449 123.57 127.743C123.647 128.429 123.724 129.115 123.801 129.801C123.893 130.615 123.912 131.599 123.237 132.064C122.877 132.311 122.413 132.331 121.977 132.343C112.796 132.591 103.615 132.839 94.4337 133.087C93.843 133.103 93.1594 133.078 92.7974 132.611C92.5701 132.318 92.5351 131.924 92.5138 131.553C92.447 130.39 92.4283 129.225 92.458 128.06C92.4625 127.883 92.4729 127.692 92.5829 127.553C92.7149 127.386 92.9471 127.345 93.1579 127.317C102.644 126.032 112.259 125.692 121.812 126.305C122.376 126.342 123.02 126.426 123.335 126.895M122.958 131.357C122.025 130.854 122.965 129.377 122.626 128.373C122.334 127.511 121.227 127.307 120.318 127.255C111.662 126.762 102.959 127.069 94.3588 128.172C94.042 128.213 93.6907 128.274 93.4984 128.528C93.3083 128.78 93.3426 129.13 93.3859 129.443C93.4529 129.926 93.5198 130.41 93.5868 130.894C93.6396 131.275 93.7201 131.703 94.0404 131.916C94.2726 132.071 94.5716 132.069 94.8507 132.062C104.22 131.827 113.589 131.592 122.958 131.357Z" fill="#00160A"/>
<path fill-rule="evenodd" clip-rule="evenodd" d="M140.606 143.15C140.649 142.13 140.693 141.111 140.737 140.092C140.822 138.105 140.926 136.044 141.85 134.283C142.773 132.521 144.767 131.153 146.702 131.61C147.913 131.897 149.029 132.848 150.247 132.593C151.307 132.37 151.958 131.322 152.853 130.713C154.988 129.26 157.964 130.609 159.73 132.494C161.633 134.525 162.87 137.17 163.209 139.933C163.238 140.167 163.252 140.431 163.101 140.613C162.976 140.763 162.772 140.815 162.581 140.859C161.846 141.027 161.111 141.195 160.376 141.364C159.75 141.507 159.1 141.651 158.472 141.521C157.843 141.391 157.239 140.906 157.188 140.266C157.001 143.843 159.68 147.26 158.933 150.764C158.656 150.612 158.378 150.461 158.101 150.309C158.755 146.795 155.624 143.394 156.278 139.881C156.365 139.416 156.551 138.921 156.967 138.695C157.383 138.469 158.04 138.726 158.024 139.198C157.998 139.956 158.815 140.522 159.573 140.515C160.33 140.509 161.019 140.102 161.667 139.708C161.897 139.568 161.834 139.221 161.738 138.969C161.022 137.09 160.08 135.296 158.939 133.64C158.168 132.52 157.239 131.413 155.958 130.958C154.677 130.504 152.985 130.968 152.514 132.243C151.962 133.735 149.876 133.836 148.344 133.405C146.812 132.975 145.093 132.303 143.726 133.118C142.583 133.799 142.2 135.251 141.986 136.564C141.619 138.817 141.449 141.102 141.48 143.385C141.542 143.733 141.986 143.845 142.34 143.836C144.203 143.788 145.933 142.318 146.282 140.487C146.785 141.065 146.964 141.847 147.126 142.595C147.689 145.185 148.251 147.774 148.814 150.364C148.987 151.161 148.785 152.387 147.982 152.242C147.618 149.417 147.079 146.615 146.369 143.857C145.027 144.162 143.685 144.467 142.343 144.772C141.932 144.866 141.471 144.953 141.11 144.732C140.613 144.429 140.581 143.732 140.606 143.15Z" fill="#00160A"/>
<path fill-rule="evenodd" clip-rule="evenodd" d="M179.865 213.487C180.55 214.23 179.486 215.599 180.113 216.391C180.439 216.801 180.207 217.453 179.776 217.75C179.344 218.048 178.792 218.088 178.269 218.118C169.278 218.64 160.287 219.163 151.296 219.685C150.685 219.721 149.955 219.7 149.621 219.187C149.475 218.963 149.439 218.687 149.408 218.422C149.326 217.731 149.244 217.04 149.162 216.349C149.136 216.132 149.113 215.9 149.215 215.706C149.383 215.388 149.801 215.319 150.159 215.287C159.608 214.453 169.069 213.748 178.537 213.172C179.008 213.144 179.546 213.141 179.865 213.487ZM178.833 214.655C178.804 214.484 178.766 214.297 178.629 214.191C178.493 214.085 178.304 214.092 178.132 214.105C169.748 214.716 161.364 215.327 152.981 215.938C152.303 215.988 151.6 216.044 151.008 216.378C150.417 216.712 149.97 217.407 150.148 218.063C150.203 218.266 150.32 218.459 150.5 218.568C150.721 218.702 150.996 218.692 151.254 218.678C160.105 218.198 168.957 217.718 177.808 217.238C178.86 217.181 179.011 215.693 178.833 214.655Z" fill="#00160A"/>
<path fill-rule="evenodd" clip-rule="evenodd" d="M186.959 205.437C188.551 209.624 189.058 214.132 189.552 218.585C190.701 228.929 191.849 239.273 192.998 249.617C192.143 249.688 191.75 248.591 191.643 247.74C189.903 233.822 189.343 219.724 186.4 206.01C186.587 205.819 186.773 205.628 186.959 205.437Z" fill="#00160A"/>
<path fill-rule="evenodd" clip-rule="evenodd" d="M135.625 133.381C135.378 133.275 135.383 132.889 135.573 132.698C135.763 132.507 136.05 132.461 136.317 132.427C138.316 132.173 140.332 132.05 142.347 132.057C142.24 132.917 141.13 133.168 140.265 133.208C138.81 133.276 137.356 133.343 135.902 133.41C135.808 133.414 135.711 133.418 135.625 133.381L135.625 133.381Z" fill="#00160A"/>
<path fill-rule="evenodd" clip-rule="evenodd" d="M146.904 238.576C146.738 235.497 146.572 232.418 146.406 229.34C145.959 221.053 145.498 212.681 143.191 204.709C142.897 203.692 142.56 202.658 141.908 201.824C140.275 199.734 137.251 199.493 134.599 199.493C124.372 199.494 114.146 200.466 104.103 202.394C103.082 202.59 102.021 202.814 101.207 203.46C99.9128 204.486 99.5717 206.289 99.4515 207.936C99.2321 210.942 99.4494 213.98 100.094 216.925C99.7252 216.864 99.3561 216.802 98.987 216.74C97.6337 213.922 97.0172 210.753 97.2148 207.633C97.3007 206.278 97.5499 204.898 98.2481 203.734C99.9847 200.838 103.807 200.143 107.165 199.783C115.684 198.871 124.235 198.256 132.798 197.941C136.244 197.814 140.138 197.911 142.503 200.421C143.693 201.683 144.296 203.38 144.769 205.049C146.412 210.847 146.865 216.905 147.31 222.915C147.745 228.787 148.18 234.659 148.615 240.531C148.717 241.911 148.818 243.313 148.539 244.668C147.629 249.085 142.925 251.772 138.448 252.306C133.97 252.84 129.462 251.817 124.953 251.742C118.89 251.641 112.79 253.253 106.81 252.246C105.088 251.956 103.256 251.345 102.31 249.878C101.653 248.86 101.534 247.597 101.434 246.39C100.725 237.873 100.015 229.356 99.3061 220.839C99.2587 220.269 99.6828 219.419 100.121 219.787C100.903 227.991 101.685 236.194 102.467 244.398C102.573 245.509 102.688 246.651 103.204 247.64C103.953 249.076 105.465 249.989 107.033 250.395C108.601 250.802 110.244 250.769 111.863 250.748C118.714 250.658 125.569 250.829 132.407 251.259C134.694 251.403 137.005 251.574 139.264 251.191C141.523 250.807 143.765 249.8 145.167 247.988C147.164 245.407 147.08 241.835 146.904 238.576Z" fill="#00160A"/>
<path fill-rule="evenodd" clip-rule="evenodd" d="M135.278 130.052C135.916 129.554 135.38 128.535 135.505 127.736C135.683 126.606 137.09 126.218 138.226 126.086C145.526 125.243 152.877 124.844 160.225 124.892C160.837 124.896 161.559 124.965 161.867 125.493C162.237 126.127 161.893 127.234 162.592 127.456C162.921 127.561 163.342 127.368 163.591 127.606C164.003 128 163.236 128.533 162.668 128.584C154.069 129.356 145.451 129.92 136.825 130.277C136.297 130.299 135.737 130.313 135.278 130.052M160.965 126.49C160.764 125.985 160.092 125.911 159.549 125.92C152.621 126.025 145.696 126.368 138.792 126.946C137.982 127.014 137.027 127.183 136.689 127.922C136.527 128.342 136.836 128.825 137.244 129.016C137.652 129.207 138.124 129.182 138.573 129.153C145.471 128.716 152.368 128.278 159.265 127.841C159.69 127.814 160.132 127.782 160.498 127.565C160.864 127.348 161.122 126.886 160.965 126.49Z" fill="#00160A"/>
<path fill-rule="evenodd" clip-rule="evenodd" d="M170.262 227.701C171.326 228.547 170.871 230.398 171.796 231.393C172.226 231.856 172.871 232.036 173.477 232.214C173.866 232.328 174.349 232.614 174.225 233.001C174.098 233.396 173.521 233.333 173.134 233.181C171.87 232.686 170.444 231.862 170.375 230.507C170.324 229.517 170.03 228.541 169.525 227.688C169.667 227.447 170.043 227.528 170.262 227.701V227.701Z" fill="#00160A"/>
<path fill-rule="evenodd" clip-rule="evenodd" d="M175.292 241.722C174.946 237.26 174.599 232.799 174.253 228.337C174.202 227.681 174.144 227.001 173.819 226.429C173.494 225.857 172.821 225.426 172.186 225.596C169.312 226.368 166.327 226.725 163.352 226.655C160.751 226.593 158.089 226.213 155.587 226.925C155.633 228.164 155.68 229.404 155.726 230.643C155.74 231.005 155.761 231.389 155.966 231.687C156.543 232.522 157.976 231.885 158.302 230.924C158.627 229.962 158.333 228.91 158.389 227.897C158.399 227.717 158.435 227.513 158.588 227.418C158.912 227.216 159.224 227.698 159.308 228.071C159.546 229.141 159.784 230.26 159.503 231.319C159.221 232.377 158.239 233.337 157.152 233.197C156.027 233.052 155.566 234.59 155.539 235.725C155.484 237.99 155.43 240.255 155.375 242.52C155.358 243.233 155.615 244.218 156.323 244.137C158.152 243.93 159.982 243.722 161.811 243.515C162.253 243.465 162.728 243.421 163.117 243.637C163.506 243.854 163.711 244.442 163.393 244.753C161.244 244.941 159.096 245.129 156.948 245.317C156.32 245.372 155.669 245.425 155.077 245.209C154.485 244.994 153.97 244.431 154.023 243.804C154.552 237.642 154.67 231.446 154.377 225.269C154.315 223.955 155.915 223.288 157.209 223.045C161.313 222.276 165.499 221.942 169.673 222.052C171.072 222.088 172.598 222.227 173.613 223.191C174.646 224.173 174.849 225.72 174.991 227.138C175.525 232.453 176.059 237.768 176.593 243.083C176.622 243.37 176.629 243.711 176.399 243.885C176.263 243.989 176.079 244 175.907 244.007C174.126 244.082 172.344 244.156 170.563 244.23C169.619 244.269 168.603 244.289 167.817 243.765C167.278 243.405 166.922 242.834 166.609 242.267C165.858 240.906 165.258 239.462 164.823 237.97C164.142 239.676 163.71 241.481 163.547 243.311C162.686 243.404 162.526 242.112 162.726 241.27C163.139 239.531 163.552 237.793 163.965 236.054C164.028 235.79 164.128 235.483 164.388 235.401C164.77 235.281 165.063 235.738 165.202 236.113C165.784 237.677 166.366 239.24 166.948 240.804C167.449 242.15 168.893 242.959 170.319 243.124C171.745 243.29 173.175 242.931 174.566 242.575C174.841 242.504 175.153 242.403 175.26 242.14C175.313 242.009 175.303 241.863 175.292 241.722ZM155.912 225.386C157.202 225.402 158.492 225.419 159.782 225.436C160.751 225.448 161.72 225.461 162.69 225.443C166.188 225.377 169.679 224.907 173.071 224.047C172.314 223.27 171.101 223.227 170.017 223.246C166.137 223.315 162.259 223.541 158.398 223.922C157.364 224.024 156.08 224.361 155.912 225.386L155.912 225.386Z" fill="#00160A"/>
<path fill-rule="evenodd" clip-rule="evenodd" d="M150.137 222.045C150.063 221.641 150.586 221.421 150.992 221.358C155.672 220.633 160.415 220.312 165.15 220.401C165.218 220.402 165.288 220.404 165.351 220.43C165.573 220.523 165.563 220.873 165.386 221.037C165.21 221.201 164.95 221.228 164.71 221.246C160.201 221.584 155.626 221.411 151.208 222.375C150.798 222.465 150.212 222.458 150.137 222.045L150.137 222.045Z" fill="#00160A"/>
<path fill-rule="evenodd" clip-rule="evenodd" d="M254.807 212.354C255.065 211.744 255.351 211.101 255.899 210.73C256.362 210.417 256.942 210.348 257.497 210.288C259.145 210.109 260.793 209.93 262.441 209.751C263.256 209.663 264.307 209.319 264.276 208.5C264.177 205.855 264.381 202.808 266.483 201.198C268.405 199.725 271.284 200.129 273.256 201.534C275.229 202.939 276.479 205.128 277.556 207.296C278.034 208.257 279.341 208.431 280.397 208.246C281.454 208.061 282.524 207.646 283.567 207.899C285.171 208.289 285.982 210.041 286.534 211.597C289.301 219.408 291.179 227.551 294.622 235.089C295.909 237.908 295.501 241.427 293.604 243.877C293.37 241.931 293.696 239.921 294.533 238.149C294.927 237.314 293.614 236.765 292.691 236.768C283.281 236.792 273.831 236.819 264.525 238.215C264.241 238.257 263.939 238.309 263.727 238.504C263.521 238.692 263.441 238.978 263.37 239.248C263.081 240.344 262.793 241.44 262.504 242.536C262.323 243.223 262.437 244.289 263.143 244.217C272.353 243.284 281.613 242.84 290.869 242.885C291.843 242.89 293.172 243.276 293.046 244.242C283.184 244.358 273.287 244.477 263.532 245.929C261.979 246.16 260.907 244.236 261.083 242.676C261.259 241.115 262.154 239.716 262.406 238.166C262.624 236.83 262.351 235.467 262.059 234.146C261.594 232.045 261.074 229.957 260.5 227.883C259.94 225.859 259.329 223.85 258.718 221.841C257.794 218.802 256.869 215.764 255.945 212.725C254.674 214.586 254.108 216.917 254.383 219.154C254.575 220.711 255.152 222.19 255.585 223.699C256.203 225.855 256.528 228.083 256.851 230.303C257.487 234.675 258.123 239.048 258.759 243.421C258.853 244.064 258.668 245.012 258.025 244.917C255.165 236.07 255.95 226.288 252.575 217.625C253.319 215.868 254.063 214.111 254.807 212.354ZM276.107 213.959C277.039 213.441 277.522 212.231 277.202 211.213C276.883 210.196 275.795 209.479 274.734 209.586C272.132 209.85 269.53 210.113 266.928 210.377C266.688 210.401 266.419 210.441 266.275 210.635C266.161 210.787 266.159 210.994 266.17 211.184C266.239 212.373 266.651 213.54 267.345 214.508C267.884 215.26 268.629 216.161 268.208 216.985C267.682 218.015 265.955 217.438 265.526 216.364C265.098 215.29 265.402 214.078 265.323 212.924C265.243 211.771 264.414 210.443 263.274 210.635C261.404 210.95 259.533 211.264 257.663 211.579C257.395 211.624 257.045 211.79 257.123 212.051C259.4 219.588 261.678 227.126 263.955 234.664C264.239 235.603 264.878 236.766 265.834 236.543C274.605 234.494 283.853 236.432 292.76 235.085C290.092 226.72 287.331 218.384 284.479 210.079C284.395 209.834 284.299 209.574 284.09 209.421C283.859 209.251 283.547 209.256 283.261 209.269C281.925 209.325 280.589 209.382 279.253 209.438C278.724 209.461 278.004 209.713 278.12 210.229C278.483 211.847 278.846 213.466 279.209 215.084C279.271 215.362 279.332 215.661 279.229 215.927C278.946 216.65 277.881 216.467 277.17 216.154C276.704 215.949 276.214 215.724 275.926 215.304C275.637 214.884 275.662 214.207 276.107 213.959ZM272.664 202.217C271.639 201.465 270.292 200.923 269.11 201.389C268.697 201.551 268.34 201.824 267.988 202.093C267.362 202.573 266.716 203.074 266.347 203.771C266.003 204.42 265.932 205.173 265.868 205.905C265.812 206.544 265.755 207.183 265.699 207.822C265.664 208.218 265.65 208.673 265.938 208.949C266.213 209.213 266.646 209.194 267.026 209.157C269.747 208.899 272.468 208.64 275.19 208.381C275.578 208.344 276.052 208.239 276.154 207.863C276.194 207.714 276.161 207.557 276.125 207.407C275.624 205.345 274.375 203.473 272.664 202.217M271.645 208.978C271.371 209.055 271.675 209.569 271.875 209.366C272.129 209.261 271.847 208.783 271.632 208.955L271.645 208.978Z" fill="#393939" fill-opacity="0.5"/>
<path fill-rule="evenodd" clip-rule="evenodd" d="M185.365 147.802C185.318 147.643 185.412 147.476 185.524 147.353C186.072 146.749 186.99 146.704 187.806 146.702C192.751 146.691 197.695 146.679 202.64 146.668C202.988 146.667 203.361 146.674 203.645 146.875C203.929 147.076 204.04 147.55 203.767 147.766C203.622 147.881 203.422 147.888 203.237 147.89C197.492 147.954 191.748 148.018 186.003 148.082C185.753 148.084 185.437 148.042 185.365 147.802Z" fill="#00160A"/>
<path fill-rule="evenodd" clip-rule="evenodd" d="M187.197 152.907C186.899 152.735 186.941 152.255 187.191 152.02C187.442 151.784 187.807 151.729 188.148 151.688C190.195 151.441 192.253 151.306 194.31 151.17C195.444 151.095 196.577 151.021 197.711 150.946C199.184 150.849 200.658 150.752 202.131 150.655C202.6 150.624 203.122 150.61 203.475 150.92C203.827 151.23 203.741 151.974 203.273 152.003C198.072 152.325 192.871 152.647 187.671 152.97C187.509 152.98 187.337 152.987 187.197 152.907L187.197 152.907Z" fill="#00160A"/>
<path fill-rule="evenodd" clip-rule="evenodd" d="M215.075 159.631C215.468 158.884 215.894 158.101 216.617 157.666C217.34 157.23 218.449 157.32 218.839 158.069C219.253 158.866 218.637 159.826 217.913 160.358C217.189 160.89 216.299 161.265 215.829 162.03C218.37 163.704 220.911 165.379 223.452 167.053C225.443 168.365 227.695 170.238 227.287 172.586C227.048 173.963 225.881 175.034 224.582 175.547C223.282 176.061 221.853 176.114 220.456 176.155C211.068 176.425 201.67 176.377 192.285 176.012C191.634 175.987 190.908 175.926 190.474 175.44C190.138 175.063 190.069 174.526 190.014 174.024C189.474 169.028 188.934 164.033 188.394 159.038C188.374 158.853 188.355 158.661 188.421 158.487C188.699 157.758 189.79 158.207 190.4 158.694C194.72 162.142 201.627 161.737 205.515 157.807C206.454 156.858 208.053 156.981 209.26 157.553C210.467 158.126 211.476 159.057 212.687 159.621C212.558 158.921 213.175 158.183 213.887 158.186C214.598 158.188 215.21 158.932 215.075 159.631ZM215.606 162.849C215.298 161.715 213.622 161.478 212.698 162.203C211.774 162.929 211.475 164.192 211.394 165.364C211.364 165.802 210.645 165.845 210.399 165.483C210.153 165.12 210.253 164.632 210.39 164.216C210.75 163.117 211.306 162.083 212.023 161.175C212.378 160.726 211.858 160.118 211.389 159.789C209.736 158.626 207.395 157.48 205.879 158.815C201.724 162.475 195.097 162.963 190.451 159.95C190.506 163.7 190.782 167.446 191.278 171.164C191.327 171.538 191.392 171.938 191.65 172.214C191.993 172.578 192.553 172.603 193.053 172.604C201.124 172.614 209.195 172.625 217.265 172.635C218.051 172.636 219.118 172.355 219.057 171.572C218.915 169.75 219.721 167.88 221.144 166.733C220.025 165.92 218.906 165.107 217.786 164.294C217.445 164.046 217.087 163.791 216.672 163.719C215.416 163.504 214.577 164.944 214.133 166.138C213.452 164.921 214.245 163.151 215.606 162.849ZM194.513 175.291C202.917 175.357 211.322 175.343 219.727 175.249C222.113 175.222 224.898 174.98 226.192 172.975C214.587 173.485 202.965 173.611 191.351 173.353C191.206 174.747 193.111 175.28 194.513 175.291M223.276 167.8C223.026 167.641 222.767 167.479 222.475 167.429C221.595 167.278 220.901 168.157 220.519 168.964C220.298 169.431 220.105 169.911 219.944 170.401C219.821 170.775 219.714 171.172 219.791 171.558C219.869 171.943 220.185 172.308 220.578 172.313C222.008 172.329 223.437 172.314 224.865 172.267C225.202 172.256 225.569 172.232 225.821 172.009C226.118 171.745 226.154 171.291 226.08 170.902C225.811 169.491 224.489 168.568 223.276 167.8ZM218.227 158.676C218.211 158.241 217.63 158.02 217.228 158.188C216.827 158.356 216.58 158.755 216.359 159.13C216.092 159.584 215.826 160.038 215.559 160.492C215.419 160.73 215.343 161.135 215.613 161.195C216.322 160.605 217.032 160.015 217.741 159.425C217.979 159.228 218.238 158.985 218.227 158.676ZM213.629 159.385C213.508 159.972 213.809 160.621 214.335 160.907C214.518 160.303 214.411 159.618 214.053 159.098C214.031 158.951 213.831 158.866 213.71 158.952C213.616 159.07 213.583 159.234 213.622 159.379L213.629 159.385Z" fill="#00160A"/>
<path fill-rule="evenodd" clip-rule="evenodd" d="M184.733 142.079C184.52 141.046 184.307 140.014 184.093 138.981C184.01 138.58 183.934 138.134 184.145 137.783C184.432 137.303 185.088 137.24 185.647 137.23C199.365 136.991 213.089 137.043 226.805 137.386C227.74 137.41 228.509 138.218 228.793 139.11C229.078 140.001 228.984 140.964 228.888 141.895C228.836 142.398 228.753 142.959 228.351 143.267C228.023 143.519 227.574 143.526 227.16 143.521C213.383 143.371 199.607 143.22 185.83 143.07C185.603 143.067 185.363 143.061 185.171 142.94C184.891 142.764 184.8 142.404 184.733 142.079ZM186.628 138.136C185.614 138.128 184.895 139.333 185.148 140.315C185.402 141.297 186.35 141.972 187.336 142.211C188.321 142.45 189.353 142.335 190.363 142.24C202.804 141.077 215.385 143.3 227.817 142.046C227.882 141.289 227.944 140.507 227.701 139.788C227.457 139.069 226.823 138.425 226.063 138.42C212.918 138.325 199.773 138.23 186.628 138.136Z" fill="#00160A"/>
<path fill-rule="evenodd" clip-rule="evenodd" d="M102.013 171.988C101.554 172.859 100.921 173.743 99.9712 174.002C98.1631 174.495 96.668 172.487 96.1746 170.679C95.4042 167.857 95.5991 164.78 96.7194 162.077C97.3188 160.631 96.8192 158.922 95.8794 157.67C94.1072 155.309 90.8012 154.275 87.9604 155.078C85.1197 155.882 82.878 158.408 82.2838 161.3C82.1907 161.753 82.2564 162.389 82.7142 162.453C84.9972 162.772 86.0454 165.452 86.393 167.731C86.6584 169.471 86.7737 171.294 86.1834 172.953C85.5931 174.611 84.1485 176.068 82.3933 176.201C80.8182 175.14 79.6323 173.515 79.1034 171.691C78.1196 168.299 79.3976 164.703 80.717 161.427C81.5223 159.428 82.3867 157.381 83.9164 155.862C87.1862 152.617 93.2919 153.002 96.1277 156.633C97.2185 158.03 97.8444 159.765 99.0533 161.061C99.9646 162.038 101.169 162.722 102.001 163.767C103.806 166.039 103.367 169.422 102.013 171.988ZM80.1037 165.718C79.2758 167.999 79.5064 170.641 80.7171 172.745C80.916 173.091 81.1526 173.434 81.5002 173.63C81.8478 173.825 82.3322 173.828 82.607 173.54C83.4303 172.674 83.5333 171.365 83.5306 170.17C83.5274 168.757 83.4402 167.345 83.2698 165.942C83.2001 165.368 83.0811 164.733 82.6168 164.388C82.1526 164.044 81.281 164.332 81.3539 164.906C81.566 166.575 81.7782 168.245 81.9903 169.914C82.0386 170.294 82.0811 170.705 81.8908 171.037C81.7005 171.369 81.1749 171.524 80.934 171.226C80.3096 169.952 80.1213 168.469 80.4076 167.08C80.5104 166.58 80.5814 165.896 80.1037 165.718M99.2156 172.338C99.4265 172.173 99.525 171.906 99.6038 171.65C100.223 169.64 100.229 167.446 99.6226 165.433C99.3919 164.667 98.7667 163.771 98.0093 164.028C97.5717 164.176 97.3499 164.655 97.2105 165.096C96.5774 167.097 96.6616 169.318 97.4445 171.266C97.5945 171.639 97.7801 172.016 98.0979 172.263C98.4157 172.51 98.8985 172.585 99.2156 172.338ZM84.3559 165.114C84.9075 167.91 84.7902 170.835 84.0164 173.578C83.9452 173.83 84.2314 174.027 84.4713 174.133C85.632 171.318 85.7789 168.097 84.8794 165.188C84.7303 165.082 84.5286 165.053 84.3559 165.114ZM100.459 164.359C100.287 164.633 100.116 164.907 99.9444 165.18C100.51 165.085 100.768 165.856 100.798 166.428C100.868 167.751 100.938 169.075 101.008 170.398C101.535 170.2 101.63 169.509 101.64 168.947C101.662 167.681 101.684 166.415 101.706 165.149C101.516 165.127 101.327 165.105 101.137 165.082C101.118 164.724 100.815 164.402 100.459 164.359Z" fill="#00160A"/>
<path fill-rule="evenodd" clip-rule="evenodd" d="M162.519 166.76C158.748 166.58 154.96 166.744 151.217 167.249C150.886 167.293 150.516 167.331 150.25 167.129C149.983 166.927 150.012 166.391 150.345 166.354C154.087 165.943 157.845 165.678 161.608 165.561C162.018 165.549 162.476 165.556 162.768 165.843C163.059 166.131 162.928 166.78 162.519 166.76Z" fill="#00160A"/>
<path fill-rule="evenodd" clip-rule="evenodd" d="M74.9081 151.701C75.9788 151.6 77.0495 151.499 78.1202 151.399C78.6596 151.348 79.199 151.297 79.7383 151.247C83.1691 150.924 86.6 150.602 90.034 150.316C90.1688 150.304 90.3097 150.294 90.4346 150.346C90.8062 150.5 90.7491 151.101 90.4252 151.339C90.1014 151.578 89.6634 151.565 89.2612 151.551C84.2041 151.383 79.1641 152.903 74.1303 152.389C73.8032 152.355 73.3753 152.187 73.433 151.863C73.9228 151.793 74.4156 151.747 74.9081 151.701Z" fill="#00160A"/>
<path fill-rule="evenodd" clip-rule="evenodd" d="M190.232 262.835C190.063 261.362 189.943 259.759 188.952 258.656C188.192 257.81 188.586 256.237 189.654 255.847C190.723 255.458 192.036 256.409 191.999 257.546C191.987 257.936 191.844 258.309 191.734 258.683C190.979 261.241 191.68 263.993 192.603 266.495C193.539 269.029 194.97 271.726 197.539 272.559C200.512 273.523 203.801 271.39 205.118 268.557C206.436 265.724 206.235 262.435 205.775 259.344C205.729 259.034 205.646 258.676 205.361 258.545C204.205 258.011 204.03 256.135 205.067 255.396C206.104 254.658 207.819 255.436 207.946 256.703C207.989 257.133 207.88 257.561 207.798 257.985C207.23 260.928 207.981 264.014 207.358 266.946C206.969 268.782 206.034 270.498 204.704 271.822C203.294 273.226 201.389 274.194 199.399 274.228C196.72 274.274 194.214 272.612 192.7 270.401C191.185 268.19 190.536 265.497 190.232 262.835Z" fill="#00160A"/>
<path fill-rule="evenodd" clip-rule="evenodd" d="M112.099 141.918C112.174 142.927 112.245 143.966 111.93 144.928C111.616 145.889 110.817 146.765 109.809 146.852C104.614 147.299 99.4175 147.745 94.2119 148.053C87.1138 148.473 80.0033 148.635 72.8946 148.797C72.641 148.803 72.3695 148.804 72.1579 148.664C71.8403 148.454 71.7808 148.021 71.7514 147.641C71.6746 146.648 71.5977 145.654 71.5209 144.66C71.4975 144.358 71.4798 144.032 71.6426 143.776C71.8812 143.401 72.3919 143.337 72.8351 143.311C85.9096 142.536 99.0026 142.071 112.099 141.918ZM109.912 145.404C110.747 145.348 110.916 144.034 110.304 143.463C109.691 142.892 108.761 142.88 107.924 142.9C97.164 143.168 86.3998 143.435 75.6612 144.166C74.8878 144.218 74.0833 144.283 73.4147 144.675C72.7462 145.067 72.2635 145.892 72.5189 146.624C72.8818 147.664 74.2845 147.778 75.3832 147.705C86.8927 146.938 98.4022 146.171 109.912 145.404Z" fill="#00160A"/>
<path fill-rule="evenodd" clip-rule="evenodd" d="M98.7398 167.029C98.7501 167.303 98.7604 167.576 98.7707 167.849C98.7922 168.418 98.8135 168.991 98.7313 169.554C98.0179 169.479 97.7966 168.561 97.755 167.845C97.7352 167.504 97.7286 167.123 97.9568 166.869C98.185 166.616 98.7269 166.688 98.7398 167.029L98.7398 167.029Z" fill="#00160A"/>
<path fill-rule="evenodd" clip-rule="evenodd" d="M150.113 169.359C150.813 168.712 151.878 168.733 152.83 168.76C155.843 168.845 158.864 168.612 161.828 168.066C162.177 168.002 162.365 168.545 162.148 168.826C161.93 169.107 161.537 169.166 161.183 169.202C157.843 169.541 154.488 169.743 151.131 169.805C150.731 169.812 150.223 169.743 150.113 169.359Z" fill="#00160A"/>
<path fill-rule="evenodd" clip-rule="evenodd" d="M262.582 180.653C262.252 181.771 261.154 182.462 260.107 182.974C254.869 185.536 248.71 186.163 243.062 184.71C241.165 184.222 239.004 183.092 238.923 181.135C238.863 179.697 240.012 178.491 241.228 177.72C243.093 176.537 245.268 175.94 247.437 175.518C251.62 174.706 256.154 174.538 259.941 176.493C261.527 177.311 263.088 178.941 262.582 180.653M240.216 180.918C240.22 182.498 241.983 183.424 243.512 183.825C248.821 185.218 254.629 184.617 259.54 182.166C260.329 181.773 261.16 181.255 261.411 180.41C261.747 179.276 260.868 178.133 259.893 177.463C256.958 175.447 253.076 175.722 249.535 176.102C246.686 176.407 243.65 176.805 241.477 178.674C240.806 179.252 240.215 180.032 240.216 180.918L240.216 180.918Z" fill="#00160A"/>
<path fill-rule="evenodd" clip-rule="evenodd" d="M108.443 88.0715C108.264 87.0554 108.965 86.0456 109.868 85.5466C110.771 85.0476 111.835 84.9513 112.865 84.8907C122.048 84.3504 131.215 85.8251 140.401 86.3099C141.583 86.3723 142.83 86.4376 143.824 87.0799C144.819 87.7221 145.403 89.1636 144.715 90.127C144.382 90.593 143.832 90.8518 143.286 91.0243C141.711 91.5217 140.021 91.4557 138.371 91.3848C129.784 91.0156 121.197 90.6465 112.61 90.2773C110.905 90.204 108.739 89.7522 108.443 88.0715M109.622 86.599C109.136 87.2828 109.542 88.303 110.244 88.763C110.945 89.223 111.828 89.2749 112.665 89.3126C121.766 89.7221 130.867 90.1317 139.968 90.5412C140.855 90.5811 141.837 90.5899 142.509 90.0098C143.181 89.4297 143.092 88.0462 142.215 87.9068C132.095 86.2977 121.826 85.6295 111.583 85.9136C110.863 85.9335 110.038 86.0123 109.622 86.599" fill="#00160A"/>
<path fill-rule="evenodd" clip-rule="evenodd" d="M209.136 79.2533C210.532 76.3427 212.797 73.3425 216.016 73.0943C218.161 72.929 220.435 73.3041 222.133 74.6251C225.21 77.0211 225.425 81.6673 224.325 85.4096C223.029 89.8205 220.135 93.9059 215.985 95.8842C214.995 96.356 213.919 96.7088 212.823 96.6658C209.911 96.5515 207.791 93.691 207.164 90.8453C206.305 86.9452 207.408 82.8537 209.136 79.2533M212.756 95.6004C214.909 95.8935 216.937 94.5226 218.455 92.9693C221.301 90.058 223.211 86.2462 223.841 82.224C224.022 81.0649 224.097 79.8622 223.782 78.7322C223.162 76.5095 221.055 74.9032 218.794 74.441C216.62 73.9965 214.23 74.5268 212.554 75.9814C211.749 76.6805 211.123 77.5635 210.577 78.4795C208.796 81.4677 207.783 84.9449 207.907 88.4216C207.963 89.9923 208.261 91.5888 209.056 92.9445C209.851 94.3001 211.199 95.3884 212.756 95.6004Z" fill="#393939" fill-opacity="0.5"/>
<path fill-rule="evenodd" clip-rule="evenodd" d="M138.555 202.782C138.841 202.766 139.148 202.756 139.39 202.909C139.69 203.098 139.799 203.475 139.885 203.819C140.074 204.571 140.264 205.353 140.112 206.114C139.96 206.874 139.36 207.604 138.585 207.638C136.609 207.725 134.633 207.811 132.657 207.897C131.882 207.931 130.974 208.042 130.589 208.715C130.328 209.171 130.405 209.738 130.491 210.257C130.733 211.727 131.418 213.586 132.907 213.531C133.897 213.496 134.78 214.247 135.207 215.142C135.633 216.037 135.697 217.055 135.753 218.045C135.807 218.976 135.569 220.249 134.636 220.272C133.884 220.291 133.677 221.307 133.701 222.059C133.867 227.29 134.033 232.52 134.199 237.75C134.226 238.593 133.146 238.947 132.307 239.032C125.277 239.742 118.173 239.723 111.147 238.976C110.895 238.95 110.573 238.851 110.568 238.598C110.438 232.688 110.308 226.778 110.178 220.868C110.17 220.524 110.001 220.047 109.669 220.138C108.622 220.424 107.569 219.453 107.352 218.389C107.135 217.325 107.507 216.24 107.874 215.218C108.043 214.746 108.233 214.245 108.639 213.949C109.504 213.317 111.104 213.767 111.491 212.768C111.555 212.603 111.568 212.422 111.561 212.245C111.507 210.701 110.07 209.483 108.556 209.178C107.042 208.873 105.482 209.274 104.008 209.734C103.67 208.459 103.583 207.118 103.754 205.811C103.795 205.502 103.858 205.178 104.065 204.946C104.361 204.615 104.853 204.569 105.296 204.545C116.382 203.957 127.469 203.369 138.555 202.782ZM108.997 214.755C108.784 215.003 108.736 215.348 108.698 215.672C108.598 216.518 108.498 217.363 108.398 218.209C108.377 218.387 108.357 218.574 108.429 218.739C108.582 219.09 109.046 219.151 109.43 219.16C111.465 219.211 113.5 219.261 115.535 219.312C115.878 219.32 116.239 219.325 116.543 219.167C117.033 218.913 117.235 218.223 116.958 217.745C117.207 217.72 117.456 217.694 117.705 217.668C117.596 218.406 118.347 219.023 119.085 219.132C119.822 219.24 120.563 219.015 121.307 218.956C122.865 218.833 124.421 219.444 125.973 219.261C126.137 219.241 126.311 219.207 126.425 219.089C126.575 218.934 126.572 218.693 126.56 218.478C126.501 217.447 126.442 216.417 126.383 215.386C126.365 215.062 126.337 214.713 126.128 214.464C125.83 214.108 125.297 214.096 124.833 214.114C122.593 214.201 120.352 214.288 118.112 214.375C117.955 214.381 117.782 214.394 117.673 214.507C117.552 214.633 117.56 214.832 117.577 215.007C117.652 215.809 117.727 216.61 117.803 217.412C117.505 217.441 117.214 217.528 116.949 217.667C116.883 217.035 116.817 216.403 116.751 215.771C116.691 215.195 116.465 214.457 115.886 214.45C114.037 214.425 112.187 214.4 110.338 214.375C109.857 214.369 109.311 214.391 108.997 214.755ZM119.651 220.971C119.62 220.546 119.436 219.983 119.012 220.028C116.375 220.312 113.706 220.296 111.073 219.98C111.138 225.718 111.244 231.455 111.393 237.192C111.412 237.93 112.344 238.226 113.079 238.301C115.261 238.525 117.459 238.601 119.652 238.529C119.831 238.523 120.026 238.511 120.163 238.394C120.343 238.241 120.355 237.972 120.352 237.736C120.289 232.142 120.055 226.551 119.651 220.971ZM132.838 220.655C132.766 220.532 132.601 220.506 132.459 220.494C130.19 220.302 127.91 220.248 125.635 220.332C125.429 220.34 125.208 220.354 125.045 220.48C124.797 220.672 124.782 221.034 124.789 221.347C124.914 227.074 125.04 232.801 125.165 238.528C127.67 238.77 130.219 238.533 132.637 237.835C132.787 237.791 132.947 237.74 133.044 237.617C133.149 237.485 133.156 237.302 133.158 237.133C133.205 233.449 133.11 229.764 133.015 226.081C132.97 224.345 132.925 222.61 132.881 220.875C132.879 220.799 132.876 220.72 132.838 220.655ZM104.711 206.138C104.276 206.821 104.743 207.787 105.458 208.169C106.173 208.551 107.029 208.514 107.839 208.467C112.734 208.183 117.629 207.9 122.524 207.616C127.192 207.345 131.861 207.075 136.522 206.695C137.204 206.64 137.921 206.57 138.485 206.182C139.049 205.793 139.377 204.972 138.999 204.401C138.619 203.828 137.803 203.802 137.117 203.837C126.946 204.362 116.774 204.886 106.603 205.411C105.9 205.447 105.088 205.544 104.711 206.138M124.276 238.394C123.932 232.804 123.864 227.197 124.072 221.6C124.084 221.278 124.095 220.944 123.967 220.649C123.592 219.787 122.387 219.789 121.458 219.933C121.034 219.999 120.492 220.202 120.524 220.63C120.922 225.984 121.32 231.347 121.231 236.714C121.219 237.425 121.626 238.127 122.248 238.471C122.871 238.814 123.682 238.783 124.276 238.394ZM134.781 217.756C134.661 217.018 134.534 216.263 134.174 215.606C133.814 214.95 133.169 214.401 132.421 214.363C131.001 214.293 129.58 214.222 128.16 214.151C127.79 214.133 127.279 214.244 127.297 214.614C127.351 215.738 127.405 216.862 127.459 217.986C127.483 218.477 127.575 219.069 128.029 219.255C128.176 219.315 128.338 219.32 128.497 219.323C130.349 219.366 132.2 219.408 134.052 219.45C134.406 219.458 134.702 219.147 134.799 218.807C134.895 218.467 134.839 218.105 134.781 217.756ZM125.815 212.217C125.63 211.437 125.437 210.638 124.993 209.969C124.549 209.301 123.796 208.779 122.996 208.838C121.763 208.928 120.53 209.019 119.297 209.11C118.529 209.166 117.659 209.277 117.209 209.902C116.664 210.658 117.037 211.712 116.89 212.632C116.839 212.955 117.091 213.265 117.393 213.39C117.696 213.516 118.035 213.501 118.362 213.484C120.569 213.371 122.777 213.257 124.984 213.144C125.308 213.127 125.697 213.068 125.826 212.77C125.901 212.598 125.859 212.4 125.815 212.217ZM129.683 210.803C129.263 210.228 129.274 209.376 129.708 208.811C128.934 208.331 127.85 208.419 127.165 209.02C126.48 209.62 126.249 210.682 126.624 211.512C126.756 211.805 126.68 212.152 126.773 212.459C126.905 212.896 127.362 213.17 127.815 213.226C128.267 213.282 128.721 213.163 129.162 213.045C129.74 212.891 130.443 212.582 130.438 211.983C130.433 211.506 129.965 211.189 129.683 210.803ZM115.889 212.852C116.145 212.013 115.801 211.057 115.143 210.478C114.484 209.898 113.563 209.673 112.689 209.751C112.338 209.783 111.972 209.87 111.719 210.114C111.465 210.358 111.374 210.798 111.603 211.065C111.772 211.263 112.061 211.321 112.238 211.512C112.508 211.803 112.417 212.269 112.541 212.646C112.82 213.499 113.978 213.579 114.871 213.498C115.177 213.47 115.515 213.426 115.716 213.195C115.8 213.097 115.851 212.975 115.889 212.852ZM116.034 210.031C116.241 209.83 116.279 209.478 116.118 209.239C115.762 209.132 115.363 209.345 115.175 209.666C115.315 209.986 115.707 210.17 116.042 210.074M126.214 209.141C126.266 209.001 126.235 208.833 126.137 208.721C125.798 208.614 125.404 208.71 125.153 208.96C125.411 209.254 125.882 209.333 126.223 209.14L126.214 209.141Z" fill="#00160A"/>
<path fill-rule="evenodd" clip-rule="evenodd" d="M262.679 185.376C251.827 189.619 240.975 193.863 230.123 198.107C225.454 199.932 220.054 202.672 219.553 207.659C225.895 202.78 233.728 199.869 241.716 199.421C236.198 206.375 229.229 212.172 221.387 216.333C214.345 220.07 205.43 224.055 204.825 232.005C212.389 222.999 224.017 217.546 235.777 217.492C228.253 228.512 216.189 236.328 203.056 238.691C203.507 242.077 203.958 245.464 204.408 248.85C208.87 248.692 213.359 249.331 217.601 250.726C220.621 263.702 223.641 276.677 226.662 289.653C227.405 292.846 228.059 296.515 226.104 299.147C224.164 301.757 220.501 302.206 217.257 302.437C204.471 303.346 191.685 304.255 178.899 305.164C177.368 298.228 175.837 291.293 174.307 284.357C152.739 286.36 131.172 288.363 109.605 290.365C105.063 290.787 100.26 291.165 96.1502 289.186C81.2433 282.01 63.1682 295.901 47.4235 290.819C61.2569 290.558 75.0475 288.145 88.1476 283.693C92.8986 282.079 98.587 277.657 96.1047 273.296C83.956 281.772 68.3682 285.157 53.7983 282.48C54.6537 268.331 54.1036 254.097 52.1585 240.056C62.5256 238.573 72.7424 236.042 82.6027 232.514C85.3455 231.532 88.1671 230.403 90.1203 228.241C92.0735 226.08 92.8631 222.588 91.147 220.234C76.1496 228.226 58.8335 231.803 41.8972 230.407C42.7809 249.57 43.6647 268.734 44.5484 287.897C42.045 268.748 40.7174 249.444 40.5755 230.132C49.2936 229.359 58.0117 228.586 66.7298 227.813C65.328 221.59 63.9173 215.225 64.6374 208.887C65.3576 202.549 68.6196 196.13 74.3535 193.335C70.0156 184.083 63.4597 175.88 55.3915 169.609C45.9332 162.258 33.7729 156.715 29.4537 145.542C26.5979 138.154 27.9987 129.561 31.953 122.698C35.9074 115.836 42.1734 110.549 48.9838 106.505C39.6075 104.095 32.5054 94.7486 32.6954 85.0693C32.8854 75.3901 40.3489 66.3295 49.8126 64.2893C45.3506 58.9722 38.3248 56.5351 33.1929 51.8613C27.2145 46.4168 24.2104 37.6341 26.3881 29.8468C28.5657 22.0596 36.233 15.9327 44.3117 16.2779C50.9476 16.5615 56.7873 20.7586 61.4193 25.5188C68.6031 32.9014 73.9457 42.062 76.8343 51.9496C78.7596 58.5401 85.8156 61.8928 91.7745 65.3035C97.7333 68.7141 103.922 74.6551 102.243 81.3125C100.023 72.2025 92.5697 64.5662 83.5162 62.1265C78.7987 60.8552 77.0794 55.2414 75.5619 50.5972C72.609 41.5599 67.5681 33.2118 60.945 26.3906C55.9677 21.2644 49.4601 16.7912 42.3254 17.1763C34.9807 17.5728 28.5061 23.5473 26.8269 30.7085C25.1477 37.8697 27.9631 45.7165 33.3223 50.7545C38.781 55.886 46.5902 58.3996 50.9911 64.4628C41.4463 66.4026 33.9002 75.5881 33.8501 85.3279C33.7999 95.0677 41.251 104.33 50.7754 106.368C44.0634 110.297 37.7828 115.288 33.6418 121.871C29.5007 128.455 27.7255 136.81 30.2033 144.182C35.9344 161.234 59.8216 165.304 68.2514 181.195C70.5345 173.696 67.1878 165.811 65.4677 158.164C63.7476 150.516 64.7199 140.695 71.8501 137.438C69.7663 127.395 67.6824 117.351 65.5986 107.307C64.0458 99.8232 63.2667 90.3412 69.705 86.2215C65.1687 84.8145 61.1426 81.8178 58.4929 77.8762C61.3543 82.2559 66.8653 84.7411 72.0422 83.986C65.5002 69.8045 58.2465 55.9514 50.3174 42.4962C58.8611 55.3786 66.4224 68.9123 72.9143 82.941C102.94 82.1286 133.012 83.0536 162.931 85.7099C166.904 86.0626 171.179 86.5761 174.115 89.2745C178.335 93.1523 184.671 94.5666 190.139 92.8516C191.879 97.1646 193.159 102.009 191.68 106.418C190.201 110.828 184.963 114.193 180.775 112.17C181.868 117.794 182.961 123.418 184.054 129.041C194.761 129.17 205.467 129.389 216.17 129.697C221.843 129.861 227.772 130.119 232.702 132.929C237.633 135.74 241.112 141.965 238.916 147.198C240.316 142.874 241.717 138.549 243.118 134.224C248.055 142.061 250.48 151.454 249.953 160.701C251.663 158.099 253.373 155.497 255.083 152.895C249.007 143.331 248.234 130.621 253.105 120.391C257.883 128.304 260.575 137.464 260.836 146.703C262.618 130.051 274.416 114.87 290.113 109.032C287.389 115.307 284.666 121.582 281.943 127.857C279.611 133.23 276.649 139.189 271.047 140.896C267.351 142.022 262 141.953 261.33 145.758C271.945 142.975 283.243 142.837 293.922 145.361C285.693 155.255 269.835 157.691 259.015 150.723C253.91 156.416 249.488 162.72 245.872 169.457C252.014 161.823 261.574 157.048 271.367 156.724C266.105 162.942 260.171 168.591 253.7 173.539C257.134 173.869 260.848 174.321 263.339 176.708C265.83 179.095 265.892 184.119 262.679 185.376ZM119.431 122.709C122.277 122.676 125.465 122.777 127.452 124.815C128.968 126.37 129.374 128.664 129.704 130.81C131.215 140.624 132.63 150.454 133.948 160.296C134.279 162.765 132.209 165.043 129.845 165.826C127.48 166.609 124.909 166.265 122.443 165.914C124.499 164.139 127.97 165.411 130.183 163.836C132.168 162.424 132.156 159.524 131.919 157.1C131.028 148.012 129.814 138.955 128.282 129.952C128.011 128.361 127.679 126.668 126.552 125.512C125.051 123.973 122.652 123.871 120.502 123.868C111.678 123.857 102.855 123.846 94.0305 123.835C92.5097 123.834 90.9095 123.852 89.5891 124.606C85.7897 126.778 87.1904 132.514 89.0791 136.461C94.4296 135.377 99.8968 134.868 105.356 134.947C110.192 135.018 116.222 136.588 117.038 141.355C118.829 151.829 120.621 162.302 122.413 172.775C123.352 178.267 123.87 184.939 119.481 188.371C117.288 190.085 114.378 190.494 111.616 190.843C104.825 191.702 98.0344 192.561 91.2436 193.419C94.0719 218.184 96.9003 242.949 99.7286 267.713C100.044 270.475 100.622 273.651 103.051 275.004C104.487 275.804 106.23 275.738 107.873 275.649C129.51 274.469 151.127 272.907 172.709 270.962C171.846 268.995 171.829 266.673 172.663 264.694C174.849 277.491 177.035 290.289 179.221 303.086C183.048 300.448 182.46 294.722 181.443 290.186C178.871 278.701 176.298 267.217 173.726 255.732C172.684 257.643 171.643 259.553 170.601 261.464C170.09 259.079 171.521 256.611 173.506 255.192C175.492 253.774 177.939 253.193 180.324 252.681C187.658 251.109 195.072 249.907 202.527 249.084C200.361 233.8 198.194 218.517 196.028 203.233C182.707 206.892 168.601 205.74 154.838 204.56C150.762 204.211 145.581 202.839 145.192 198.766C144.215 188.527 143.238 178.289 142.261 168.05C142.133 166.715 141.36 164.917 140.087 165.338C136.958 166.371 135.097 161.913 134.841 158.628C134.038 148.325 133.234 138.021 132.431 127.717C132.326 126.366 132.298 124.806 133.306 123.9C134.011 123.265 135.028 123.149 135.973 123.063C142.715 122.446 149.457 121.83 156.199 121.213C160.048 120.861 164.422 120.679 167.223 123.344C169.2 125.224 169.864 128.075 170.281 130.772C171.05 135.741 171.305 140.79 171.04 145.812C170.506 140.904 169.971 135.995 169.437 131.086C169.197 128.877 168.903 126.535 167.508 124.806C165.126 121.856 160.696 121.905 156.916 122.216C150.165 122.772 143.414 123.327 136.663 123.883C135.754 123.957 134.769 124.065 134.108 124.694C133.248 125.512 133.272 126.866 133.358 128.05C134.082 138.007 134.805 147.965 135.528 157.923C135.665 159.802 135.851 161.811 137.039 163.274C138.227 164.736 140.805 165.195 141.915 163.673C140.394 160.329 142.498 156.235 145.612 154.286C148.726 152.338 152.548 151.995 156.21 151.703C162.525 151.199 168.84 150.695 175.156 150.191C174.723 137.12 173.313 124.081 170.942 111.219C168.758 110.608 166.769 109.317 165.322 107.571C164.239 110.361 161.013 112.134 158.077 111.553C155.141 110.971 152.834 108.103 152.896 105.111C152.548 108.554 149.548 111.541 146.104 111.874C142.659 112.207 139.143 109.85 138.141 106.538C136.492 108.377 134.351 109.963 131.89 110.187C129.429 110.411 126.707 108.857 126.307 106.418C123.075 110.611 115.564 110.186 112.826 105.655C110.011 110.302 101.994 110.188 99.3115 105.462C98.107 109.831 91.3834 110.181 88.156 106.999C84.9286 103.818 84.3003 98.9172 83.8512 94.4077C78.5239 99.5407 77.5628 107.787 78.5739 115.115C79.5851 122.443 82.2199 129.503 82.859 136.873C84.3186 137.24 85.9194 137.008 87.215 136.243C85.8156 132.014 84.8953 126.332 88.6941 124.006C90.2179 123.073 92.1036 123.025 93.8902 123.004C102.404 122.906 110.917 122.807 119.431 122.709ZM203.769 193.879C214.937 193.324 226.458 194.78 237.071 191.26C238.713 190.716 240.395 189.998 241.453 188.629C238.742 187.383 235.863 185.234 235.93 182.252C235.973 180.293 237.331 178.599 238.86 177.374C240.465 176.088 242.335 175.133 244.317 174.586C244.478 174.095 243.615 173.989 243.188 174.279C242.76 174.569 242.112 174.928 241.827 174.496C241.751 174.381 241.735 174.236 241.722 174.098C240.656 163.258 239.078 152.468 236.993 141.777C236.366 138.563 235.435 134.982 232.602 133.34C231.072 132.452 229.239 132.304 227.475 132.182C214.194 131.263 200.89 130.7 187.579 130.494C184.434 130.445 180.915 130.562 178.71 132.806C177.037 134.508 176.558 137.036 176.38 139.416C175.832 146.785 177.41 154.121 178.437 161.439C179.666 170.206 180.109 179.061 180.92 187.876C181.028 189.049 181.159 190.271 181.794 191.264C182.881 192.965 185.09 193.499 187.09 193.779C190.044 194.193 193.032 194.369 196.015 194.303C198.603 194.245 201.184 194.007 203.769 193.879ZM112.116 137.015C108.336 135.353 104.005 135.798 99.9032 136.274C93.6981 136.995 87.4929 137.715 81.2877 138.435C78.3053 138.782 75.3199 139.128 72.3695 139.685C71.6582 139.819 70.9445 139.967 70.2734 140.238C67.6435 141.301 66.0757 144.136 65.7109 146.949C65.3461 149.762 65.9713 152.598 66.5706 155.371C68.4334 163.987 70.0855 172.684 70.5336 181.489C70.6224 183.231 70.6669 184.997 71.146 186.676C71.625 188.354 72.6032 189.968 74.1326 190.809C75.3091 191.455 76.6912 191.59 78.0308 191.678C90.3095 192.485 102.582 190.504 114.727 188.531C116.456 188.25 118.274 187.93 119.621 186.812C121.701 185.085 122.012 182.046 121.997 179.342C121.97 174.349 121.365 169.359 120.199 164.503C118.836 158.824 116.695 153.237 116.639 147.397C116.614 144.821 116.952 142.045 115.608 139.847C114.814 138.549 113.51 137.627 112.116 137.015ZM53.6879 245.159C55.3386 257.019 55.8931 269.031 55.3422 280.992C55.3132 281.623 56.0793 281.944 56.6993 282.063C64.6394 283.58 72.8166 281.636 80.5213 279.189C84.9012 277.798 89.2845 276.213 93.0724 273.612C94.8052 272.422 96.5587 270.628 96.2346 268.551C94.153 255.207 93.0081 241.717 92.8111 228.213C85.8005 233.691 76.9041 236.016 68.2818 238.209C64.1952 239.249 60.0532 240.295 55.8366 240.26C54.8173 240.251 53.9709 241.147 53.6861 242.126C53.4012 243.104 53.5474 244.15 53.6879 245.159M214.832 251.154C201.7 249.876 188.304 251.377 175.781 255.532C176.533 261.252 177.561 266.936 178.859 272.557C179.378 274.808 179.942 277.048 180.505 279.289C181.601 283.652 182.698 288.015 183.795 292.379C183.947 292.986 184.138 293.65 184.662 293.993C185.129 294.3 185.734 294.265 186.291 294.219C199.258 293.137 212.217 291.966 225.168 290.704C222.337 278.084 219.506 265.463 216.675 252.843C216.566 252.358 216.435 251.836 216.049 251.523C215.715 251.251 215.261 251.196 214.832 251.154ZM195.474 195.754C192.617 195.9 189.717 196.042 186.926 195.408C184.136 194.774 181.421 193.253 179.988 190.776C179.166 191.723 177.531 191.794 176.63 190.922C175.728 190.051 175.745 188.414 176.663 187.56C173.033 187.593 169.403 187.626 165.773 187.659C167.432 188.636 167.296 191.517 165.581 192.392C163.866 193.268 161.492 191.789 161.453 189.864C161.435 189 161.965 188.03 162.825 187.953C162.469 187.341 161.542 187.703 160.837 187.636C159.775 187.536 159.194 186.378 158.822 185.379C157.31 181.324 155.935 177.22 154.56 173.117C155.523 174.693 157.691 175.401 159.399 174.699C160.002 174.451 160.02 173.583 159.763 172.984C159.315 171.937 158.293 171.129 157.157 171.04C156.022 170.951 154.84 171.645 154.456 172.717C153.887 172.292 154.13 171.308 154.727 170.922C155.324 170.537 156.089 170.571 156.798 170.614C163.493 171.018 170.213 171.012 176.908 170.595C177.212 170.576 177.548 170.542 177.756 170.318C177.991 170.065 177.968 169.674 177.931 169.331C177.675 166.977 177.419 164.622 177.163 162.267C177.135 162.006 177.094 161.72 176.899 161.544C176.684 161.351 176.361 161.359 176.072 161.38C167.68 161.978 159.31 162.881 150.984 164.088C150.098 164.216 149.274 163.472 148.994 162.621C148.714 161.771 148.844 160.846 148.976 159.96C149.022 159.65 149.081 159.313 149.311 159.099C149.523 158.902 149.831 158.856 150.118 158.819C158.78 157.714 167.499 157.05 176.229 156.832C176.017 157.695 174.892 157.881 174.004 157.897C165.902 158.04 157.809 158.69 149.787 159.84C149.147 160.935 150.025 162.411 151.207 162.871C152.389 163.332 153.714 163.086 154.961 162.851C161.833 161.557 168.806 160.795 175.796 160.573C176.794 160.541 176.913 159.105 176.703 158.129C176.216 155.862 175.729 153.595 175.242 151.328C170.402 152.245 165.457 152.611 160.534 152.416C157.621 152.301 154.724 152.81 151.853 153.317C149.414 153.748 146.814 154.259 145.051 156C142.99 158.034 142.62 161.215 142.745 164.108C142.951 168.855 144.155 173.498 144.75 178.212C145.476 183.971 145.289 189.809 145.847 195.587C145.997 197.144 146.212 198.729 146.91 200.129C147.608 201.528 148.876 202.73 150.423 202.961C163.134 204.856 176.094 205.071 188.86 203.599C190.039 203.463 191.229 203.31 192.342 202.898C194.099 202.248 195.606 200.945 196.502 199.3C196.862 198.64 197.131 197.884 197 197.144C196.868 196.403 196.225 195.716 195.474 195.754ZM93.8586 228.225C95.1888 242.859 96.519 257.494 97.8492 272.129C98.0883 274.759 98.3184 277.476 97.4962 279.986C96.6741 282.496 94.5113 284.765 91.8715 284.852C93.4213 287.118 96.0961 288.415 98.8009 288.889C101.506 289.364 104.279 289.113 107.013 288.86C129.544 286.778 152.074 284.697 174.604 282.615C174.121 279.8 173.637 276.984 173.154 274.169C173.045 273.537 172.735 272.736 172.096 272.783C156.605 273.938 141.114 275.092 125.623 276.246C119.261 276.721 112.869 277.195 106.511 276.674C103.294 276.411 99.3211 275.133 99.0037 271.921C96.4641 246.221 93.5239 220.56 90.1847 194.952C90.1333 194.558 90.0696 194.136 89.8003 193.844C89.4408 193.455 88.8457 193.425 88.3154 193.422C85.1477 193.406 81.98 193.39 78.8123 193.374C79.7376 198.622 80.9385 203.821 82.4085 208.943C82.6801 209.89 83.1321 210.995 84.102 211.165C87.585 211.777 90.334 214.642 91.767 217.875C93.2 221.108 93.5385 224.703 93.8586 228.225ZM81.6882 137.131C78.9693 123.34 76.6689 109.468 74.7911 95.5382C74.685 94.7504 74.5822 93.9335 74.814 93.1732C75.2919 91.6059 77.0061 90.7846 78.6003 90.4065C81.717 89.6672 84.9717 89.9138 88.1663 90.1494C117.373 92.3029 146.675 93.1647 175.958 92.7312C174.794 90.369 172.451 88.7578 169.96 87.9034C167.469 87.049 164.807 86.8594 162.179 86.6778C136.402 84.8964 110.587 83.2271 84.7503 83.5382C81.5893 83.5763 78.3914 83.649 75.3392 84.4722C72.287 85.2953 69.3504 86.953 67.5895 89.5784C64.8148 93.7155 65.4859 99.1803 66.3448 104.087C68.356 115.578 70.8029 126.993 73.6783 138.298C76.3483 137.909 79.0182 137.52 81.6882 137.131ZM144.576 110.178C145.972 110.193 147.422 110.114 148.657 109.464C150.832 108.319 151.798 105.681 151.942 103.227C152.085 100.773 151.601 98.3137 151.757 95.8605C151.793 95.3014 152.105 94.5603 152.647 94.7007C153.04 97.5248 153.433 100.349 153.826 103.173C154.043 104.732 154.268 106.32 154.952 107.739C155.635 109.157 156.863 110.403 158.409 110.7C159.296 110.871 160.223 110.718 161.07 110.4C163.096 109.638 164.794 107.699 164.717 105.536C164.611 102.55 164.504 99.5629 164.398 96.5763C164.356 95.3946 163.917 93.8202 162.736 93.8821C154.864 94.2946 146.969 94.2582 139.101 93.7731C138.527 93.7377 138.376 94.5506 138.437 95.1221C138.752 98.0845 139.066 101.047 139.381 104.009C139.619 106.246 140.127 108.875 142.179 109.795C142.923 110.129 143.761 110.169 144.576 110.178ZM184.95 296.067C184.573 296.331 184.324 296.737 184.094 297.137C182.9 299.215 181.941 301.428 181.24 303.72C195.019 302.757 208.788 301.639 222.542 300.364C223.059 300.316 223.619 300.249 223.99 299.885C224.231 299.65 224.355 299.322 224.471 299.006C224.986 297.607 225.501 296.209 226.016 294.81C226.266 294.13 226.489 293.283 225.999 292.748C225.592 292.304 224.9 292.318 224.299 292.366C211.724 293.374 199.155 294.458 186.593 295.621C186.021 295.674 185.42 295.737 184.95 296.067ZM209.24 211.171C208.867 206.823 208.108 201.944 204.561 199.404C203.176 203.217 201.779 207.087 201.462 211.13C201.145 215.174 202.039 219.484 204.751 222.499C205.132 222.923 205.556 223.334 205.758 223.867C205.96 224.4 205.858 225.104 205.363 225.386C201.676 222.178 200.15 217.033 200.236 212.147C200.323 207.261 201.82 202.523 203.304 197.867C203.63 196.844 202.697 195.767 201.651 195.529C200.604 195.29 199.523 195.64 198.506 195.986C198.308 196.053 198.221 196.279 198.158 196.478C197.456 198.718 196.746 201.093 197.291 203.377C199.636 213.216 199.334 223.542 201.721 233.371C201.809 233.734 201.905 234.105 202.116 234.413C203.7 231.316 205.284 228.22 206.867 225.123C207.611 223.668 208.36 222.203 208.824 220.636C209.727 217.59 209.511 214.337 209.24 211.171ZM265.26 139.752C265.566 140.005 265.977 140.084 266.371 140.128C270.849 140.629 275.075 137.581 277.555 133.819C280.035 130.056 281.207 125.611 282.832 121.409C284.358 117.464 286.31 113.685 288.642 110.157C283.972 114.539 278.223 117.607 273.349 121.76C268.474 125.914 264.326 131.739 264.67 138.133C264.702 138.724 264.804 139.376 265.26 139.752ZM85.906 97.3772C86.5426 100.168 86.2794 103.269 87.8255 105.677C89.3243 108.012 92.4858 109.125 95.1168 108.244C97.7477 107.362 99.6008 104.57 99.3903 101.803C99.3425 101.174 99.2006 100.557 99.0591 99.9422C98.5048 97.5347 97.9505 95.1272 97.3961 92.7197C97.341 92.4802 97.2793 92.2282 97.1095 92.0506C96.8659 91.7959 96.476 91.7662 96.1239 91.7527C92.7374 91.6231 89.3509 91.4934 85.9645 91.3638C85.6387 91.3513 85.2811 91.3488 85.0279 91.5542C84.7074 91.814 84.689 92.2914 84.7307 92.7019C84.8932 94.3027 85.5481 95.8084 85.906 97.3772ZM177.576 99.9801C177.656 103.835 180.168 107.186 182.816 109.988C183.075 110.262 183.34 110.536 183.663 110.729C184.186 111.042 184.822 111.116 185.428 111.064C187.474 110.888 189.224 109.341 190.088 107.478C190.951 105.615 191.049 103.484 190.863 101.438C190.677 99.3935 190.224 97.3796 190.041 95.3343C190.005 94.9241 189.854 94.3886 189.442 94.3902C185.822 94.404 182.201 94.4179 178.581 94.4317C178.118 94.4335 177.627 94.443 177.236 94.6909C176.845 94.9388 176.626 95.5177 176.916 95.8787C177.803 96.9814 177.546 98.5656 177.576 99.9801ZM232.632 219.21C222.713 219.036 213.619 224.916 206.681 232.007C205.512 233.202 204.37 234.456 203.592 235.936C203.454 236.198 203.345 236.563 203.571 236.754C203.691 236.856 203.863 236.862 204.02 236.862C209.791 236.841 215.341 234.403 220.03 231.039C224.719 227.675 228.669 223.405 232.632 219.21ZM109.893 107.544C111.31 106.728 112.222 105.104 112.181 103.469C112.16 102.64 111.915 101.836 111.718 101.031C111.211 98.9579 111.014 96.8098 111.136 94.6796C111.161 94.2259 111.2 93.7598 111.064 93.3262C110.927 92.8927 110.566 92.4941 110.112 92.4693C106.363 92.2646 102.615 92.06 98.8667 91.8553C98.7319 91.8479 98.5848 91.8439 98.4759 91.9238C98.3072 92.0476 98.3167 92.2986 98.348 92.5055C98.8092 95.5557 100.285 98.429 100.38 101.512C100.415 102.647 100.263 103.81 100.581 104.9C100.988 106.295 102.15 107.397 103.498 107.94C104.847 108.483 106.36 108.513 107.791 108.255C108.522 108.123 109.249 107.915 109.893 107.544ZM259.88 149.303C262.595 150.069 264.995 151.67 267.628 152.681C273.467 154.92 280.416 153.985 285.455 150.282C287.618 148.692 289.782 147.102 291.946 145.512C289.308 146.137 286.58 146.376 283.874 146.22C279.353 145.959 274.888 144.605 270.372 144.944C266.531 145.233 262.795 146.785 259.88 149.303ZM182.359 128.413C181.825 125.457 181.292 122.501 180.758 119.546C180.043 115.584 179.328 111.623 178.613 107.661C178.562 107.38 178.501 107.079 178.292 106.883C178.084 106.688 177.678 106.687 177.564 106.949C176.85 108.598 175.388 109.905 173.67 110.429C172.627 110.748 172.538 112.17 172.659 113.254C173.514 120.897 174.526 128.522 175.694 136.124C176.034 133.015 178.698 130.315 181.802 129.934C182.406 129.859 182.467 129.012 182.359 128.413ZM125.326 104.372C124.994 101.185 124.576 98.0078 124.071 94.8441C123.967 94.1917 123.69 93.3784 123.03 93.3494C119.618 93.1998 116.206 93.0501 112.794 92.9004C112.673 92.8951 112.544 92.8912 112.437 92.9482C112.161 93.0942 112.206 93.4959 112.287 93.7968C113.074 96.7181 113.492 99.7385 113.527 102.764C113.536 103.508 113.527 104.281 113.839 104.957C114.297 105.952 115.341 106.523 116.333 106.988C118.062 107.798 119.953 108.51 121.839 108.216C123.726 107.922 125.524 106.271 125.326 104.372ZM126.801 104.389C127.145 106.057 127.776 107.996 129.41 108.475C130.788 108.88 132.278 108.991 133.661 108.602C135.044 108.212 136.305 107.284 136.923 105.987C137.364 105.064 137.463 104.02 137.52 102.999C137.678 100.202 137.569 97.3902 137.198 94.6137C137.178 94.465 137.156 94.3122 137.081 94.1824C136.882 93.8378 136.413 93.7894 136.015 93.7807C132.541 93.705 129.067 93.6293 125.593 93.5536C125.309 93.5474 124.912 93.8424 125.152 93.994C125.541 97.4821 126.092 100.952 126.801 104.389ZM243.536 138.892C240.822 145.028 240.023 151.994 241.276 158.585C241.777 161.218 242.762 164.012 245.041 165.423C245.712 165.838 246.83 165.96 247.078 165.212C249.961 156.513 248.616 146.519 243.536 138.892ZM67.6309 215.928C68.7822 216.718 70.0799 217.294 71.4382 217.617C73.1545 218.026 74.9371 218.031 76.7009 218.073C80.8227 218.173 84.9392 218.488 89.0278 219.019C89.5982 219.093 90.0697 218.476 90.0547 217.901C90.0396 217.326 89.6898 216.818 89.3273 216.371C87.1466 213.685 83.9621 211.834 80.5488 211.267C78.1308 210.866 75.6583 211.091 73.2083 211.021C70.7582 210.95 68.2009 210.535 66.2471 209.055C66.1437 210.463 66.1354 211.877 66.2224 213.286C66.2577 213.856 66.3152 214.447 66.6058 214.939C66.8493 215.351 67.2362 215.657 67.6309 215.928ZM166.795 106.608C167.18 107.306 167.797 107.843 168.43 108.328C169.115 108.853 169.855 109.345 170.697 109.538C172.77 110.012 174.889 108.477 175.763 106.538C176.636 104.6 176.547 102.377 176.345 100.261C176.192 98.6604 175.984 97.0653 175.721 95.4793C175.677 95.2148 175.627 94.9384 175.46 94.7281C175.169 94.3592 174.635 94.3164 174.164 94.3039C171.638 94.2367 169.111 94.1696 166.584 94.1024C166.025 94.0875 165.23 94.3551 165.396 94.8896C166.14 97.2819 166.464 99.8041 166.35 102.307C166.283 103.767 166.089 105.328 166.795 106.608ZM256.217 151.028C258.899 146.699 259.702 141.248 258.382 136.329C257.215 131.98 254.502 128.128 253.641 123.708C251.637 129.791 249.618 136.34 251.431 142.483C252.361 145.631 254.238 148.408 256.217 151.028ZM211.774 219.138C219.753 217.083 227.117 212.702 232.731 206.671C234.411 204.867 236.13 203.099 237.887 201.371C233.582 201.961 229.379 203.292 225.519 205.289C219.63 208.335 214.463 213.078 211.774 219.138ZM260.385 166.179C263.319 163.421 266.254 160.663 269.188 157.905C259.264 159.17 249.996 164.904 244.435 173.221C245.868 174.325 247.925 173.675 249.597 172.983C251.923 172.022 254.268 171.049 256.338 169.618C257.796 168.611 259.093 167.392 260.385 166.179ZM67.3774 226.453C67.4021 226.708 67.4323 226.977 67.5867 227.182C67.9244 227.629 68.6131 227.519 69.151 227.362C75.309 225.562 81.3807 223.467 87.338 221.086C87.7675 220.914 88.2685 220.642 88.277 220.18C83.7069 219.863 79.1367 219.546 74.5666 219.229C73.4488 219.151 72.3266 219.073 71.2308 218.839C69.5824 218.487 68.0106 217.781 66.6532 216.782C66.7527 220.014 67.0651 223.235 67.3774 226.453ZM211.745 195.531C211.376 195.798 211.227 196.267 211.101 196.704C210.666 198.203 210.229 199.794 210.632 201.302C210.838 202.07 211.252 202.764 211.66 203.447C212.789 205.335 213.919 207.223 215.049 209.111C215.154 209.287 215.268 209.471 215.449 209.566C215.989 209.85 216.521 209.184 216.772 208.629C218.397 205.023 220.06 201.21 219.691 197.272C219.634 196.666 219.47 195.979 218.929 195.701C218.68 195.574 218.392 195.557 218.113 195.544C216.438 195.46 214.763 195.377 213.089 195.294C212.625 195.271 212.121 195.259 211.745 195.531ZM237.342 182.182C237.299 184.72 239.513 186.842 241.941 187.58C244.37 188.319 246.976 188.001 249.5 187.73C253.937 187.254 258.631 186.861 262.279 184.29C263.088 183.719 263.854 183.015 264.215 182.093C264.779 180.655 264.212 178.956 263.152 177.832C262.091 176.709 260.621 176.066 259.15 175.595C253.892 173.912 248.054 174.105 242.919 176.134C240.21 177.204 237.391 179.27 237.342 182.182ZM66.9596 208.107C67.4376 208.553 68.4064 208.667 68.5928 208.04C69.2314 205.893 70.6671 204.052 72.3583 202.583C74.0495 201.115 75.9994 199.98 77.9363 198.855C78.4587 198.552 78.4258 197.799 78.3249 197.203C78.1293 196.049 77.9337 194.896 77.7382 193.742C77.6886 193.449 77.5908 193.101 77.3047 193.022C77.0706 192.958 76.8393 193.117 76.648 193.266C75.2585 194.351 73.869 195.436 72.4794 196.521C69.6953 198.696 66.7115 201.19 66.1078 204.67C65.8974 205.883 66.0597 207.267 66.9596 208.107ZM77.7986 200.339C74.678 202.288 71.3748 204.446 69.9566 207.841C69.8683 208.052 69.7869 208.274 69.7938 208.503C69.8075 208.955 70.1714 209.336 70.5887 209.509C71.006 209.683 71.4707 209.69 71.9226 209.696C74.594 209.727 77.2655 209.759 79.9369 209.79C80.0668 209.792 80.2079 209.79 80.3103 209.71C80.4724 209.584 80.4559 209.338 80.4238 209.135C79.9976 206.442 79.5715 203.749 79.1454 201.056C79.0847 200.672 78.961 200.214 78.5872 200.11C78.3153 200.034 78.0381 200.19 77.7986 200.339ZM210.524 195.697C208.557 195.189 206.435 195.3 204.532 196.009C204.9 197.219 205.554 198.341 206.424 199.258C209.356 202.35 210.223 206.839 210.556 211.087C210.734 213.356 210.797 215.634 210.744 217.91C212.032 215.923 213.32 213.935 214.608 211.948C214.736 211.751 214.868 211.541 214.882 211.306C214.896 211.071 214.79 210.847 214.681 210.638C213.41 208.184 211.542 206.067 210.363 203.567C209.184 201.067 208.822 197.875 210.524 195.697ZM78.7438 91.6791C77.6589 91.8512 76.4219 92.1269 75.9065 93.097C75.5503 93.7677 75.6554 94.5792 75.7699 95.3299C76.2414 98.4218 76.7129 101.514 77.1844 104.606C79.5973 100.267 81.8566 95.8447 84.1154 91.4237C83.6973 90.951 82.9565 91.0108 82.3332 91.1097C81.1367 91.2995 79.9403 91.4893 78.7438 91.6791ZM227.259 196.664C227.594 197.108 228.466 196.617 228.26 196.101C231.483 197.026 234.996 196.368 238.04 194.962C241.084 193.556 243.742 191.45 246.357 189.352C245.259 189.199 244.16 189.045 243.062 188.892C242.838 188.861 242.547 188.865 242.461 189.074C241.87 190.522 240.597 191.607 239.19 192.292C237.784 192.976 236.237 193.308 234.707 193.634C233.646 193.86 232.584 194.086 231.522 194.312C229.878 194.663 228.024 195.167 227.259 196.664ZM168.959 174.243C169.166 174.191 169.387 174.129 169.519 173.962C169.724 173.702 169.622 173.33 169.568 173.004C169.514 172.678 169.597 172.244 169.923 172.187C170.219 172.246 170.356 172.598 170.363 172.901C170.371 173.203 170.304 173.519 170.413 173.801C170.657 174.429 171.524 174.454 172.192 174.368C172.588 174.318 172.983 174.268 173.379 174.217C173.502 174.202 173.635 174.182 173.727 174.098C174.019 173.83 173.612 173.392 173.522 173.006C173.452 172.708 173.591 172.385 173.5 172.092C173.344 171.594 172.681 171.518 172.159 171.535C168.168 171.667 164.177 171.8 160.186 171.932C160.254 172.688 160.461 173.43 160.792 174.112C160.864 174.259 160.948 174.411 161.09 174.492C161.234 174.575 161.41 174.569 161.575 174.562C162.567 174.516 163.56 174.47 164.552 174.423C164.636 174.419 164.725 174.414 164.796 174.368C164.977 174.248 164.914 173.972 164.831 173.771C164.687 173.426 164.544 173.081 164.401 172.736C164.276 172.436 164.82 172.258 165.048 172.489C165.277 172.72 165.286 173.082 165.393 173.388C165.617 174.025 166.294 174.413 166.964 174.495C167.633 174.577 168.306 174.409 168.959 174.243ZM226.925 195.372C227.142 195.14 226.663 194.898 226.347 194.937C224.55 195.157 222.753 195.378 220.955 195.598C220.715 195.628 220.398 195.759 220.455 195.994C221.046 198.413 220.824 201.022 219.834 203.306C219.646 203.741 219.522 204.406 219.973 204.551C221.847 201.187 224.195 198.087 226.925 195.372ZM165.688 176.067C165.631 175.872 165.568 175.667 165.419 175.528C165.25 175.371 165.006 175.331 164.777 175.306C163.599 175.177 162.399 175.258 161.249 175.544C161.609 176.71 161.969 177.877 162.328 179.043C162.396 179.264 162.488 179.512 162.703 179.599C162.813 179.643 162.935 179.636 163.053 179.627C164.216 179.546 165.379 179.464 166.541 179.383C166.289 178.27 166.004 177.164 165.688 176.067ZM158.118 180.146C158.247 180.217 158.405 180.195 158.55 180.171C159.603 180 160.656 179.828 161.708 179.657C161.328 178.44 160.948 177.222 160.569 176.005C160.513 175.827 160.443 175.631 160.279 175.542C160.149 175.471 159.991 175.487 159.844 175.504C158.905 175.613 157.967 175.722 157.028 175.831C156.852 175.851 156.643 175.896 156.577 176.061C156.533 176.173 156.575 176.299 156.617 176.412C157.03 177.528 157.444 178.643 157.857 179.759C157.912 179.908 157.978 180.07 158.118 180.146ZM169.944 175.284C169.721 175.09 169.392 175.104 169.098 175.128C168.171 175.204 167.244 175.28 166.317 175.356C166.594 176.544 166.943 177.715 167.361 178.861C167.416 179.011 167.478 179.17 167.606 179.266C167.765 179.386 167.983 179.38 168.183 179.368C168.815 179.329 169.448 179.291 170.081 179.253C170.373 179.236 170.727 179.173 170.825 178.898C170.872 178.766 170.841 178.62 170.81 178.483C170.618 177.626 170.426 176.769 170.233 175.912C170.182 175.683 170.121 175.438 169.944 175.284ZM164.414 183.818C164.322 183.832 164.225 183.849 164.158 183.914C164.028 184.039 164.087 184.255 164.156 184.422C164.399 185.018 164.643 185.614 164.886 186.21C164.977 186.431 165.078 186.666 165.28 186.794C165.466 186.912 165.701 186.915 165.922 186.914C166.763 186.908 167.604 186.903 168.445 186.898C168.568 186.898 168.702 186.893 168.797 186.815C168.969 186.673 168.905 186.4 168.825 186.191C168.502 185.338 168.178 184.485 167.855 183.632C167.751 183.358 167.37 183.354 167.081 183.4C166.192 183.539 165.303 183.678 164.414 183.818ZM171.491 175.115C171.314 175.115 171.115 175.125 170.996 175.256C170.852 175.414 170.898 175.66 170.952 175.867C171.192 176.771 171.431 177.675 171.67 178.579C171.712 178.738 171.761 178.908 171.888 179.012C172.058 179.149 172.303 179.124 172.519 179.091C173.316 178.969 174.113 178.847 174.911 178.725C174.825 177.8 174.678 176.88 174.471 175.974C174.407 175.691 174.317 175.382 174.072 175.226C173.888 175.11 173.657 175.107 173.44 175.108C172.79 175.11 172.141 175.112 171.491 175.115ZM173.114 186.792C172.856 185.854 172.597 184.915 172.339 183.977C172.24 183.618 172.1 183.212 171.754 183.077C171.583 183.01 171.393 183.025 171.21 183.041C170.359 183.115 169.508 183.189 168.658 183.263C168.882 184.104 169.147 184.933 169.453 185.748C169.607 186.158 169.84 186.623 170.273 186.693C171.211 186.844 172.168 186.878 173.114 186.792ZM174.595 186.727C175.366 186.79 176.213 186.833 176.836 186.375C176.566 185.323 176.296 184.272 176.025 183.221C175.965 182.984 175.883 182.72 175.666 182.608C175.507 182.525 175.316 182.548 175.138 182.572C174.374 182.679 173.61 182.785 172.845 182.892C173.027 184.004 173.335 185.096 173.763 186.14C173.828 186.3 173.902 186.466 174.039 186.572C174.194 186.691 174.401 186.711 174.595 186.727ZM243.327 171.763C243.916 170.553 244.505 169.344 245.094 168.135C245.156 168.008 245.219 167.871 245.197 167.731C245.175 167.595 245.076 167.487 244.981 167.387C244.143 166.5 243.304 165.613 242.466 164.727C242.117 165.203 242.157 165.849 242.213 166.437C242.395 168.364 242.578 170.292 242.761 172.22C243.017 172.277 243.212 171.999 243.327 171.763ZM175.442 174.975C175.332 174.968 175.207 174.965 175.13 175.045C175.044 175.133 175.063 175.277 175.088 175.398C175.254 176.198 175.42 176.999 175.586 177.799C175.647 178.096 175.72 178.413 175.944 178.617C176.668 179.277 178.064 178.141 178.737 178.854C178.855 177.717 178.77 176.56 178.487 175.453C178.467 175.375 178.443 175.293 178.383 175.239C178.315 175.177 178.215 175.168 178.122 175.162C177.229 175.099 176.336 175.037 175.442 174.975ZM158.779 180.911C158.683 180.924 158.582 180.939 158.503 180.995C158.326 181.12 158.333 181.379 158.359 181.594C158.426 182.166 158.5 182.759 158.8 183.251C159.099 183.744 159.691 184.109 160.247 183.959C161.045 183.745 161.843 183.532 162.64 183.318C162.606 182.555 162.452 181.799 162.185 181.084C162.118 180.905 162.035 180.717 161.87 180.62C161.7 180.52 161.487 180.544 161.292 180.57C160.454 180.684 159.617 180.797 158.779 180.911ZM177.384 174.222C177.624 174.185 177.88 174.142 178.058 173.977C178.589 173.486 177.982 172.488 178.413 171.907C178.581 171.68 178.169 171.478 177.887 171.489C176.627 171.543 175.367 171.596 174.107 171.649C174.156 172.17 174.247 172.688 174.378 173.194C174.524 173.759 175.075 174.146 175.645 174.271C176.215 174.396 176.807 174.309 177.384 174.222ZM167.2 181.008C167.038 180.229 165.994 180.047 165.212 180.193C164.429 180.339 163.555 180.621 162.89 180.184C162.932 181.007 163.124 181.822 163.454 182.577C163.523 182.735 163.607 182.901 163.758 182.986C163.928 183.082 164.138 183.051 164.331 183.018C165.102 182.885 165.874 182.752 166.645 182.618C167.028 182.552 167.532 182.25 167.33 181.918C167.17 181.653 167.263 181.311 167.2 181.008ZM162.434 184.208C161.803 184.315 161.173 184.422 160.543 184.528C160.201 184.586 159.781 184.723 159.744 185.067C159.652 185.938 160.519 186.639 161.377 186.813C162.235 186.986 163.125 186.816 163.996 186.903C163.96 186.163 163.805 185.429 163.539 184.738C163.476 184.573 163.401 184.404 163.261 184.296C163.035 184.121 162.716 184.16 162.434 184.208ZM179.047 182.52C178.21 182.431 177.36 182.476 176.537 182.651C176.992 183.734 177.315 184.872 177.496 186.032C177.58 186.564 178.339 186.574 178.861 186.441C179.056 186.392 179.268 186.33 179.379 186.163C179.475 186.019 179.47 185.832 179.462 185.66C179.417 184.704 179.373 183.749 179.328 182.793C179.325 182.733 179.321 182.669 179.286 182.62C179.235 182.546 179.136 182.529 179.047 182.52ZM165.387 191.08C166.176 190.293 165.771 188.703 164.702 188.389C163.633 188.074 162.432 189.191 162.669 190.28C162.914 191.406 164.571 191.894 165.387 191.08ZM171.587 181.851C172.089 181.196 171.338 180.229 170.525 180.087C169.712 179.944 168.888 180.256 168.063 180.243C167.759 180.239 167.747 180.696 167.845 180.984C167.973 181.356 168.101 181.728 168.229 182.1C168.281 182.252 168.376 182.434 168.536 182.424C169.125 182.387 169.713 182.351 170.301 182.314C170.771 182.284 171.301 182.224 171.587 181.851ZM179.719 188.174C179.658 188.01 179.568 187.849 179.426 187.746C179.299 187.653 179.14 187.614 178.984 187.595C177.749 187.446 176.551 188.678 176.733 189.908C177.259 190.533 178.248 190.705 178.954 190.295C179.66 189.885 180.001 188.94 179.719 188.174ZM172.097 180.737C172.07 181.278 172.546 181.74 173.067 181.886C173.589 182.032 174.144 181.937 174.677 181.842C174.95 181.794 175.256 181.723 175.399 181.485C175.704 180.979 175.099 180.049 175.657 179.855C175.283 179.803 174.908 179.752 174.533 179.7C174.038 179.632 173.526 179.566 173.046 179.703C172.565 179.84 172.122 180.238 172.097 180.737ZM176.577 181.429C177.145 181.923 178.096 181.855 178.624 181.318C179.151 180.782 179.22 179.872 178.822 179.234C177.828 179.418 176.834 179.602 175.84 179.787C175.966 180.385 176.116 181.028 176.577 181.429ZM253.383 171.929C252.609 172.215 251.835 172.502 251.061 172.789C250.677 172.931 250.287 173.077 249.954 173.316C251.22 173.81 252.817 173.164 253.383 171.929ZM181.441 110.498C181.42 110.156 181.059 109.877 180.723 109.943C180.744 110.291 181.091 110.584 181.438 110.546L181.441 110.498Z" fill="#00160A"/>
</svg>
