<svg width="19" height="19" viewBox="0 0 19 19" fill="none" xmlns="http://www.w3.org/2000/svg">
<g clip-path="url(#clip0_2_21606)">
<path d="M18.5851 5.67798V11.0986C18.5851 12.0924 17.7488 12.9055 16.7266 12.9055H15.7973V11.0986H16.7266V5.67798H1.85851V11.0986H7.43403V12.9055H1.85851C0.836329 12.9055 0 12.0924 0 11.0986V5.67798C0 4.68419 0.836329 3.87109 1.85851 3.87109H16.7266C17.7488 3.87109 18.5851 4.68419 18.5851 5.67798ZM11.6157 14.7124L12.6286 12.5351L14.8681 11.5503L12.6286 10.5656L11.6157 8.3883L10.6028 10.5656L8.36329 11.5503L10.6028 12.5351L11.6157 14.7124ZM13.9388 10.1952L14.515 8.94844L15.7973 8.3883L14.515 7.82817L13.9388 6.58142L13.3627 7.82817L12.0803 8.3883L13.3627 8.94844L13.9388 10.1952ZM11.6157 14.7124L12.6286 12.5351L14.8681 11.5503L12.6286 10.5656L11.6157 8.3883L10.6028 10.5656L8.36329 11.5503L10.6028 12.5351L11.6157 14.7124ZM13.9388 10.1952L14.515 8.94844L15.7973 8.3883L14.515 7.82817L13.9388 6.58142L13.3627 7.82817L12.0803 8.3883L13.3627 8.94844L13.9388 10.1952Z" fill="black" fill-opacity="0.5"/>
</g>
<defs>
<clipPath id="clip0_2_21606">
<rect width="18.5851" height="18.5851" fill="white"/>
</clipPath>
</defs>
</svg>
