<svg width="90" height="91" viewBox="0 0 90 91" fill="none" xmlns="http://www.w3.org/2000/svg">
<circle cx="45" cy="45.0469" r="45" fill="black"/>
<mask id="mask0_2_21537" style="mask-type:alpha" maskUnits="userSpaceOnUse" x="0" y="0" width="90" height="90">
<circle cx="45" cy="45" r="45" fill="#C4C4C4"/>
</mask>
<g mask="url(#mask0_2_21537)">
<path d="M25.7402 40.9045V50.7276H30.6886V49.0781H27.6548V40.9045H25.7402Z" fill="white"/>
<path d="M36.4661 40.6836C33.3733 40.6836 31.2232 42.8338 31.2232 45.8234C31.2232 48.813 33.3733 50.9485 36.4661 50.9485C39.5588 50.9485 41.709 48.813 41.709 45.8234C41.709 42.8338 39.5588 40.6836 36.4661 40.6836ZM36.4661 49.2107C34.5515 49.2107 33.1966 47.8116 33.1966 45.8234C33.1966 43.8352 34.5515 42.4214 36.4661 42.4214C38.3806 42.4214 39.7355 43.8352 39.7355 45.8234C39.7355 47.8116 38.3806 49.2107 36.4661 49.2107Z" fill="white"/>
<path d="M48.4512 47.1194H50.9843C50.8223 47.8263 50.4394 48.327 50.0565 48.6216C49.5115 49.034 48.7752 49.2107 48.1272 49.2107C47.0815 49.2107 46.3894 48.7983 45.9475 48.3712C45.5352 47.9736 44.9755 47.193 44.9755 45.8823C44.9755 44.7778 45.4026 43.8352 45.9623 43.2903C46.5661 42.7012 47.4497 42.4214 48.2303 42.4214C48.6868 42.4214 49.2023 42.5245 49.6146 42.7307C49.9239 42.8927 50.4246 43.2314 50.7634 43.8941L52.4275 42.9958C51.9121 42.1121 51.2199 41.523 50.5866 41.199C49.8355 40.8014 49.055 40.6836 48.3186 40.6836C46.4188 40.6836 45.1817 41.4347 44.4454 42.1858C43.8563 42.7749 43.0021 43.9383 43.0021 45.8381C43.0021 48.0472 44.1214 49.2843 44.4601 49.623C45.5352 50.6981 46.8017 50.9485 48.0241 50.9485C49.2465 50.9485 50.4983 50.6687 51.5145 49.6525C52.8694 48.3123 52.9577 46.2505 52.9577 45.5878V45.47H48.4512V47.1194Z" fill="white"/>
<path d="M59.4918 40.6836C56.3991 40.6836 54.2489 42.8338 54.2489 45.8234C54.2489 48.813 56.3991 50.9485 59.4918 50.9485C62.5845 50.9485 64.7347 48.813 64.7347 45.8234C64.7347 42.8338 62.5845 40.6836 59.4918 40.6836ZM59.4918 49.2107C57.5773 49.2107 56.2223 47.8116 56.2223 45.8234C56.2223 43.8352 57.5773 42.4214 59.4918 42.4214C61.4063 42.4214 62.7613 43.8352 62.7613 45.8234C62.7613 47.8116 61.4063 49.2107 59.4918 49.2107Z" fill="white"/>
<circle cx="45" cy="45.0469" r="44.5" stroke="#393939" stroke-opacity="0.5"/>
<rect x="16.2168" y="33.4141" width="57.5455" height="24" stroke="#BBC36D" stroke-width="3"/>
</g>
</svg>
