<svg width="20" height="20" viewBox="0 0 20 20" fill="none" xmlns="http://www.w3.org/2000/svg">
<rect width="20" height="20" rx="2" fill="#393939" fill-opacity="0.05"/>
<path d="M10 6C7.27273 6 4.94364 7.65867 4 10C4.94364 12.3413 7.27273 14 10 14C12.7273 14 15.0564 12.3413 16 10C15.0564 7.65867 12.7273 6 10 6ZM10 12.6667C8.49455 12.6667 7.27273 11.472 7.27273 10C7.27273 8.528 8.49455 7.33333 10 7.33333C11.5055 7.33333 12.7273 8.528 12.7273 10C12.7273 11.472 11.5055 12.6667 10 12.6667ZM10 8.4C9.09455 8.4 8.36364 9.11467 8.36364 10C8.36364 10.8853 9.09455 11.6 10 11.6C10.9055 11.6 11.6364 10.8853 11.6364 10C11.6364 9.11467 10.9055 8.4 10 8.4Z" fill="#393939"/>
</svg>
