<svg width="27" height="26" viewBox="0 0 27 26" fill="none" xmlns="http://www.w3.org/2000/svg">
<path d="M13.3951 15.2824C14.6669 15.2824 15.6979 14.2514 15.6979 12.9796C15.6979 11.7078 14.6669 10.6768 13.3951 10.6768C12.1233 10.6768 11.0923 11.7078 11.0923 12.9796C11.0923 14.2514 12.1233 15.2824 13.3951 15.2824Z" fill="white"/>
<path d="M16.2736 7.32715H10.5165C9.67913 7.32715 8.94642 7.58883 8.47539 8.05986C8.00436 8.53089 7.74268 9.26361 7.74268 10.101V15.858C7.74268 16.6954 8.00436 17.4281 8.52773 17.9515C9.05109 18.4225 9.73147 18.6842 10.5689 18.6842H16.2736C17.1109 18.6842 17.8437 18.4225 18.3147 17.9515C18.8381 17.4805 19.0997 16.7478 19.0997 15.9104V10.1533C19.0997 9.31594 18.8381 8.63557 18.367 8.1122C17.8437 7.58883 17.1633 7.32715 16.2736 7.32715ZM13.395 16.5384C11.4062 16.5384 9.83614 14.916 9.83614 12.9795C9.83614 10.9907 11.4586 9.42062 13.395 9.42062C15.3315 9.42062 17.0063 10.9907 17.0063 12.9795C17.0063 14.9683 15.3838 16.5384 13.395 16.5384ZM17.1109 10.101C16.6399 10.101 16.2736 9.73464 16.2736 9.26361C16.2736 8.79258 16.6399 8.42622 17.1109 8.42622C17.582 8.42622 17.9483 8.79258 17.9483 9.26361C17.9483 9.73464 17.582 10.101 17.1109 10.101Z" fill="white"/>
<path d="M13.4998 0C6.38203 0 0.625 5.75703 0.625 12.8748C0.625 19.9926 6.38203 25.7497 13.4998 25.7497C20.6176 25.7497 26.3746 19.9926 26.3746 12.8748C26.427 5.75703 20.6176 0 13.4998 0ZM20.3559 15.9104C20.3559 17.1141 19.9372 18.1608 19.2045 18.8935C18.4718 19.6263 17.4251 19.9926 16.2737 19.9926H10.569C9.41756 19.9926 8.37083 19.6263 7.63812 18.8935C6.85307 18.1608 6.48671 17.1141 6.48671 15.9104V10.1533C6.48671 7.74583 8.10915 6.07106 10.569 6.07106H16.326C17.5297 6.07106 18.5241 6.48975 19.2569 7.22246C19.9896 7.95518 20.3559 8.94957 20.3559 10.1533V15.9104Z" fill="white"/>
</svg>
