<svg width="17" height="21" viewBox="0 0 17 21" fill="none" xmlns="http://www.w3.org/2000/svg">
<path d="M10.4167 0H2.08333C0.9375 0 0 0.9375 0 2.08333V18.75C0 19.8958 0.9375 20.8333 2.08333 20.8333H14.5833C15.7292 20.8333 16.6667 19.8958 16.6667 18.75V6.25L10.4167 0ZM11.4583 9.375H7.29167V10.4167H10.4167C10.9896 10.4167 11.4583 10.8854 11.4583 11.4583V14.5833C11.4583 15.1563 10.9896 15.625 10.4167 15.625H9.375V16.6667H7.29167V15.625H5.20833V13.5417H9.375V12.5H6.25C5.67708 12.5 5.20833 12.0313 5.20833 11.4583V8.33333C5.20833 7.76042 5.67708 7.29167 6.25 7.29167H7.29167V6.25H9.375V7.29167H11.4583V9.375Z" fill="#393939"/>
</svg>
