<?xml version="1.0" encoding="utf-8"?>
<!-- Generator: Adobe Illustrator 15.0.0, SVG Export Plug-In . SVG Version: 6.00 Build 0)  -->
<!DOCTYPE svg PUBLIC "-//W3C//DTD SVG 1.1//EN" "http://www.w3.org/Graphics/SVG/1.1/DTD/svg11.dtd">
<svg version="1.1" id="Layer_1" xmlns="http://www.w3.org/2000/svg" xmlns:xlink="http://www.w3.org/1999/xlink" x="0px" y="0px"
	 width="17px" height="21px" viewBox="0 0 17 21" enable-background="new 0 0 17 21" xml:space="preserve">
<path fill="#FFFFFF" d="M10.416,0H2.083C0.938,0,0,0.938,0,2.083V18.75c0,1.146,0.938,2.084,2.083,2.084h12.5
	c1.145,0,2.082-0.938,2.082-2.084V6.25L10.416,0z M11.459,9.375H7.292v1.042h3.125c0.574,0,1.043,0.469,1.043,1.042v3.125
	c0,0.572-0.469,1.041-1.043,1.041H9.375v1.041H7.292v-1.041H5.208v-2.084h4.167V12.5H6.25c-0.573,0-1.042-0.469-1.042-1.041V8.333
	c0-0.573,0.469-1.042,1.042-1.042h1.042V6.25h2.083v1.042h2.084V9.375z"/>
</svg>
