<svg width="19" height="21" viewBox="0 0 19 21" fill="none" xmlns="http://www.w3.org/2000/svg">
<path d="M15.625 15.625H3.125V13.5417H15.625V15.625ZM15.625 11.4583H3.125V9.375H15.625V11.4583ZM15.625 7.29167H3.125V5.20833H15.625V7.29167ZM0 20.8333L1.5625 19.2708L3.125 20.8333L4.6875 19.2708L6.25 20.8333L7.8125 19.2708L9.375 20.8333L10.9375 19.2708L12.5 20.8333L14.0625 19.2708L15.625 20.8333L17.1875 19.2708L18.75 20.8333V0L17.1875 1.5625L15.625 0L14.0625 1.5625L12.5 0L10.9375 1.5625L9.375 0L7.8125 1.5625L6.25 0L4.6875 1.5625L3.125 0L1.5625 1.5625L0 0V20.8333Z" fill="#393939"/>
</svg>
