<?xml version="1.0" encoding="utf-8"?>
<!-- Generator: Adobe Illustrator 15.0.0, SVG Export Plug-In . SVG Version: 6.00 Build 0)  -->
<!DOCTYPE svg PUBLIC "-//W3C//DTD SVG 1.1//EN" "http://www.w3.org/Graphics/SVG/1.1/DTD/svg11.dtd">
<svg version="1.1" id="Layer_1" xmlns="http://www.w3.org/2000/svg" xmlns:xlink="http://www.w3.org/1999/xlink" x="0px" y="0px"
	 width="19px" height="21px" viewBox="0 0 19 21" enable-background="new 0 0 19 21" xml:space="preserve">
<path fill="#FFFFFF" d="M15.625,15.625h-12.5v-2.084h12.5V15.625z M15.625,11.459h-12.5V9.375h12.5V11.459z M15.625,7.292h-12.5
	V5.208h12.5V7.292z M0,20.834l1.563-1.563l1.563,1.563l1.563-1.563l1.563,1.563l1.563-1.563l1.563,1.563l1.563-1.563l1.563,1.563
	l1.563-1.563l1.563,1.563l1.563-1.563l1.563,1.563V0l-1.563,1.563L15.625,0l-1.563,1.563L12.5,0l-1.563,1.563L9.375,0L7.813,1.563
	L6.25,0L4.688,1.563L3.125,0L1.563,1.563L0,0V20.834z"/>
</svg>
