<svg width="16" height="15" viewBox="0 0 16 15" fill="none" xmlns="http://www.w3.org/2000/svg">
<path d="M8 0C3.86 0 0.5 3.36 0.5 7.5C0.5 11.64 3.86 15 8 15C12.14 15 15.5 11.64 15.5 7.5C15.5 3.36 12.14 0 8 0ZM8 2.25C9.245 2.25 10.25 3.255 10.25 4.5C10.25 5.745 9.245 6.75 8 6.75C6.755 6.75 5.75 5.745 5.75 4.5C5.75 3.255 6.755 2.25 8 2.25ZM8 12.9C6.125 12.9 4.4675 11.94 3.5 10.485C3.5225 8.9925 6.5 8.175 8 8.175C9.4925 8.175 12.4775 8.9925 12.5 10.485C11.5325 11.94 9.875 12.9 8 12.9Z" fill="white"/>
</svg>
