<svg width="26" height="26" viewBox="0 0 26 26" fill="none" xmlns="http://www.w3.org/2000/svg">
<path fill-rule="evenodd" clip-rule="evenodd" d="M13 0C20.1749 0 26 5.82512 26 13C26 20.1749 20.1749 26 13 26C5.82512 26 0 20.1749 0 13C0 5.82512 5.82512 0 13 0ZM20.7855 9.08873C20.5987 8.38952 20.0481 7.839 19.3489 7.65212C18.0815 7.3125 13 7.3125 13 7.3125C13 7.3125 7.91847 7.3125 6.65107 7.65212C5.95207 7.839 5.40135 8.38952 5.21447 9.08873C4.875 10.356 4.875 13.0001 4.875 13.0001C4.875 13.0001 4.875 15.6441 5.21447 16.9113C5.40135 17.6105 5.95207 18.1612 6.65107 18.348C7.91847 18.6875 13 18.6875 13 18.6875C13 18.6875 18.0815 18.6875 19.3489 18.348C20.0481 18.1612 20.5987 17.6105 20.7855 16.9113C21.125 15.6441 21.125 13.0001 21.125 13.0001C21.125 13.0001 21.125 10.356 20.7855 9.08873ZM11.3749 15.4377V10.5626L15.5967 13.0001L11.3749 15.4377Z" fill="white"/>
</svg>
